<svg width="163" height="119" viewBox="0 0 163 119" fill="none" xmlns="http://www.w3.org/2000/svg">
<path d="M146.101 22.3956L136.102 31.4651L133.764 28.8874L147.052 16.835L161.161 32.3901L148.25 44.0999L145.912 41.5222L155.534 32.7953L152.047 28.9509L144.47 35.8236L142.253 33.3793L149.83 26.5066L146.101 22.3956ZM122.036 45.0904C121.088 43.3972 120.911 41.6551 121.502 39.8642C122.09 38.1014 123.304 36.5134 125.144 35.1003C127.365 33.3948 129.55 32.6118 131.7 32.7512C133.833 32.9028 135.704 34.0255 137.312 36.1193C138.908 38.1972 139.504 40.2865 139.1 42.3873C138.708 44.5039 137.426 46.3967 135.253 48.0656C133.46 49.4422 131.643 50.195 129.8 50.3241C127.958 50.4531 126.365 49.8733 125.022 48.5846L128.075 45.8615C128.826 46.4449 129.665 46.6834 130.591 46.5768C131.515 46.4982 132.404 46.13 133.261 45.4722C134.387 44.6073 135.017 43.556 135.151 42.3184C135.297 41.0967 134.907 39.883 133.981 38.6775C133.043 37.4562 131.965 36.7584 130.747 36.5844C129.513 36.4224 128.309 36.7922 127.136 37.6937C126.216 38.4002 125.613 39.1912 125.327 40.0665C125.025 40.954 125.077 41.8595 125.484 42.7829L122.036 45.0904ZM115.759 44.6844C117.945 45.0126 119.731 46.2526 121.118 48.4046C122.504 50.5565 122.895 52.6957 122.291 54.8221C121.686 56.9486 120.199 58.7755 117.828 60.3029C115.458 61.8303 113.188 62.4246 111.018 62.0856C108.832 61.7574 107.046 60.5173 105.659 58.3654C104.272 56.2134 103.881 54.0742 104.486 51.9478C105.074 49.8322 106.553 48.0107 108.924 46.4833C111.294 44.9559 113.572 44.3562 115.759 44.6844ZM118.386 54.4117C118.644 53.1508 118.378 51.9068 117.587 50.6795C116.796 49.4522 115.774 48.6956 114.519 48.4097C113.264 48.1238 111.989 48.398 110.695 49.2321C109.4 50.0662 108.624 51.1137 108.366 52.3745C108.107 53.6354 108.374 54.8794 109.164 56.1067C109.955 57.334 110.978 58.0906 112.233 58.3765C113.488 58.6624 114.762 58.3882 116.057 57.5541C117.351 56.72 118.128 55.6725 118.386 54.4117ZM86.9202 77.2091C85.2773 78.0376 83.7483 78.1815 82.3332 77.6408C80.9093 77.1269 79.7426 75.9681 78.833 74.1645L74.4561 65.4857L78.233 63.581L82.1236 71.2955C82.6729 72.3848 83.3552 73.1159 84.1704 73.4887C84.9768 73.8885 85.8532 73.8497 86.7996 73.3723C87.889 72.823 88.5524 71.9844 88.79 70.8566C89.0367 69.7467 88.7997 68.4774 88.0793 67.0488L84.6886 60.3254L88.4655 58.4206L92.356 66.1351C92.9053 67.2245 93.5787 67.96 94.3761 68.3419C95.1824 68.7416 96.0678 68.6983 97.0321 68.212C98.1214 67.6627 98.7848 66.8241 99.0225 65.6963C99.2691 64.5863 99.0322 63.3171 98.3117 61.8884L94.921 55.165L98.6979 53.2603L105.776 67.2964L102.267 69.0661L100.89 66.3338C100.827 68.919 99.5813 70.8239 97.1526 72.0487C94.6525 73.3095 92.4826 73.0487 90.6429 71.2661C90.6743 72.5719 90.3652 73.7357 89.7158 74.7576C89.0664 75.7795 88.1345 76.5967 86.9202 77.2091ZM57.5388 79.6856L57.3681 79.2369L70.2108 74.3529C68.8843 71.9901 66.7909 71.3526 63.9308 72.4403C62.0801 73.1441 60.999 74.2399 60.6876 75.7278L56.7713 76.9925C56.7126 75.4314 57.2011 74.0153 58.2369 72.7441C59.2798 71.4916 60.8294 70.4743 62.8857 69.6923C65.615 68.6543 68.0159 68.4688 70.0883 69.1357C72.1491 69.8284 73.6665 71.4553 74.6405 74.0163C75.6073 76.5587 75.5602 78.7698 74.4992 80.6498C73.4194 82.5368 71.5616 83.9815 68.9258 84.9839C63.4672 87.0599 59.6715 85.2937 57.5388 79.6856ZM67.8808 82.236C69.1332 81.7596 70.057 81.066 70.652 80.155C71.2284 79.2511 71.3883 78.1525 71.1318 76.8592L62.2149 80.2503C62.7349 81.3364 63.4897 82.055 64.4791 82.4062C65.4757 82.7761 66.6096 82.7194 67.8808 82.236ZM47.8721 92.0755C47.2594 92.2607 46.5787 92.3934 45.8299 92.4736L44.7445 88.8841C45.5949 88.7941 46.4603 88.616 47.341 88.3497C48.8342 87.8982 49.8047 87.1346 50.2526 86.0589C50.7062 85.0024 50.6494 83.5361 50.0821 81.66L48.1371 75.2276L52.186 74.0033L56.7072 89.0592L52.9454 90.1966L51.9729 86.9805C51.6511 89.6478 50.2842 91.3461 47.8721 92.0755ZM23.8049 87.1486C23.6499 85.2145 24.2147 83.5569 25.4992 82.1759C26.7687 80.8188 28.5343 79.8818 30.7959 79.3647C33.5255 78.7407 35.8382 78.9403 37.7339 79.9635C39.6101 80.9912 40.8424 82.7919 41.4308 85.3655C42.0147 87.9196 41.685 90.0671 40.4417 91.8079C39.2029 93.5683 37.2479 94.7538 34.5769 95.3645C32.3737 95.8682 30.4078 95.7944 28.6792 95.1433C26.9506 94.4922 25.7448 93.301 25.0618 91.5696L28.9723 90.3679C29.4113 91.2113 30.0742 91.7778 30.9611 92.0674C31.8329 92.381 32.7952 92.4174 33.8481 92.1767C35.2324 91.8603 36.2434 91.1675 36.8812 90.0985C37.5234 89.0489 37.6752 87.7833 37.3364 86.3015C36.9932 84.8003 36.3044 83.7165 35.2699 83.0503C34.2159 82.3886 32.9675 82.2226 31.5247 82.5525C30.3939 82.811 29.516 83.2784 28.891 83.9547C28.2465 84.6355 27.9165 85.4803 27.9009 86.4891L23.8049 87.1486ZM3.66644 91.5664L3.59815 91.0913L17.1984 89.1365C16.4212 86.5406 14.5181 85.4604 11.4892 85.8957C9.52939 86.1774 8.23468 87.0101 7.60513 88.3938L3.50706 88.7706C3.79141 87.2345 4.57804 85.9597 5.86693 84.946C7.15867 83.9521 8.89335 83.2987 11.071 82.9857C13.9613 82.5702 16.3445 82.9147 18.2207 84.019C20.08 85.1459 21.2045 87.0654 21.5943 89.7776C21.9813 92.4699 21.4514 94.6171 20.0046 96.2193C18.538 97.8242 16.4091 98.8273 13.6178 99.2285C7.83719 100.059 4.52008 97.5054 3.66644 91.5664ZM13.1995 96.3184C14.5259 96.1278 15.5791 95.6531 16.359 94.8944C17.1192 94.1386 17.5157 93.1016 17.5486 91.7836L8.1056 93.1408C8.37531 94.3144 8.95447 95.1808 9.84307 95.7401C10.7345 96.3192 11.8533 96.5119 13.1995 96.3184Z" fill="white"/>
</svg>
