<svg width="227" height="46" viewBox="0 0 227 46" fill="none" xmlns="http://www.w3.org/2000/svg">
<rect width="199.843" height="40.2264" fill="white"/>
<path d="M136.422 33.7809C137.114 32.0495 137.03 30.1038 136.201 28.1111C137.908 27.4923 139.438 26.4681 140.659 25.1272C141.88 23.7863 142.756 22.1688 143.21 20.4146C143.665 18.6604 143.684 16.8221 143.267 15.0586C142.85 13.2951 142.01 11.6594 140.817 10.2928C144.698 12.7363 148.75 17.882 145.206 23.6831C145.206 23.6831 147.839 22.05 148.431 19.1197C149.358 27.9272 141.312 30.8077 139.512 31.0193C139.512 31.0193 143.599 31.0096 146.203 29.2824C144.339 33.1544 140.434 34.2718 137.263 34.2372C136.414 35.2264 135.373 36.0344 134.204 36.613C135.191 35.8903 135.959 34.9091 136.422 33.7781" fill="#9B82F6"/>
<path d="M116.269 17.8917C116.629 20.8663 119.137 22.693 119.137 22.693C116.05 16.6416 120.484 11.8154 124.528 9.67331C122.975 11.2026 121.904 13.1521 121.447 15.2813C120.991 17.4105 121.168 19.6266 121.959 21.6563C122.749 23.686 124.117 25.4407 125.894 26.7041C127.671 27.9675 129.78 28.6845 131.961 28.7666C132.13 28.7735 132.299 28.7749 132.468 28.7749C132.705 25.8059 128.138 22.1288 127.387 17.2086C127.026 14.8356 129.531 11.6522 132.555 13.1305C135.579 14.6088 133.852 18.0825 133.852 18.0825C133.662 18.8791 133.824 19.7613 133.98 20.2951C134.152 20.887 133.252 21.4236 132.95 18.3301C132.648 15.2366 129.503 14.5216 128.982 16.6291C128.526 18.4725 129.767 20.4763 133.711 25.4795C138.042 30.9667 135.985 35.6975 131.645 37.0804H131.636C132.724 36.3752 133.669 35.2453 134.003 33.4393C134.003 33.4393 132.816 35.822 130.022 36.5881C128.015 37.1413 125.394 36.7665 123.827 34.4834C128.262 35.0241 131.132 32.8848 131.132 32.8848C129.582 33.5466 127.907 33.8651 126.222 33.8182C123.059 33.72 119.277 32.1864 117.718 28.2038C120.185 30.1232 124.258 30.4426 124.258 30.4426C122.48 30.0955 114.676 26.6149 116.269 17.9028" fill="#9B82F6"/>
<path d="M141.873 18.9344C141.931 17.414 141.623 15.902 140.974 14.5251C140.326 13.1482 139.355 11.9467 138.145 11.0214C136.935 10.096 135.52 9.47388 134.019 9.20713C132.517 8.94038 130.974 9.0368 129.518 9.48831C128.062 9.93982 126.736 10.7332 125.651 11.802C124.565 12.8707 123.753 14.1836 123.281 15.6305C122.81 17.0774 122.693 18.616 122.94 20.1173C123.188 21.6185 123.793 23.0387 124.704 24.2584C123.428 22.7699 122.615 20.9425 122.363 18.9998C122.111 17.0571 122.433 15.0833 123.287 13.32C124.142 11.5566 125.494 10.08 127.176 9.07097C128.859 8.0619 130.799 7.56406 132.761 7.63833C134.723 7.7126 136.62 8.35578 138.221 9.48917C139.822 10.6226 141.058 12.197 141.776 14.02C142.495 15.8429 142.665 17.8353 142.267 19.7534C141.868 21.6715 140.918 23.4321 139.533 24.8199C140.965 23.1835 141.79 21.1056 141.869 18.9344" fill="#9B82F6"/>
<path d="M22.098 26.8914C21.9968 29.263 21.2193 31.2184 19.7656 32.7202C18.8191 33.7159 17.6536 34.4405 16.2345 34.9466C14.9439 35.4032 13.5848 35.637 12.2155 35.6381H12.077C10.6228 35.6582 9.17408 35.4568 7.78086 35.0407C6.28075 34.5729 4.90208 33.7816 3.74252 32.723C2.84817 31.8839 2.1068 30.8962 1.55151 29.8037C1.08915 28.8831 0.737481 27.9111 0.503811 26.908C0.486477 26.8551 0.475316 26.8003 0.470551 26.7448C0.519233 26.7213 0.570354 26.7033 0.622993 26.6909C1.17733 26.5457 1.73166 26.3839 2.2957 26.2207L3.22421 25.9677C3.46119 25.8944 3.69817 25.8404 3.93376 25.7685C3.95547 25.7595 3.97832 25.7534 4.00167 25.7505C4.02054 25.7836 4.03189 25.8205 4.03493 25.8584C4.38971 27.4874 5.04937 28.7735 6.08043 29.7304C6.99468 30.571 8.12262 31.145 9.34131 31.3899C10.6925 31.6803 11.8081 31.7536 12.8724 31.6264C13.8023 31.5185 14.8667 31.336 15.8631 30.7399C17.3501 29.8521 18.1442 28.4582 18.1954 26.6121C18.2453 25.2735 17.9585 24.2405 17.3168 23.39C16.7763 22.6667 16.0502 22.2311 15.4917 21.9241C14.3794 21.3597 13.2137 20.9066 12.0118 20.5717L11.3023 20.3532C9.66283 19.883 7.99012 19.3769 6.41857 18.6702C5.25308 18.1295 3.79657 17.351 2.70175 15.975C1.95432 15.0278 1.50186 13.8824 1.40045 12.681C1.28265 11.2691 1.40045 10.0536 1.8065 8.96941C2.31034 7.56555 3.24478 6.35585 4.47701 5.51224C5.30412 4.94387 6.21621 4.5098 7.1794 4.22617C8.88676 3.72003 10.7618 3.57483 12.8738 3.8113C14.4076 3.94474 15.8888 4.43442 17.199 5.24119C18.7373 6.21888 19.9361 7.61282 20.8022 9.40502C21.141 10.1566 21.4276 10.9305 21.66 11.7213C21.674 11.7708 21.6912 11.8193 21.7113 11.8665C21.6633 11.8794 21.6168 11.8975 21.5727 11.9205L18.4657 12.7723C18.3811 12.8083 18.3146 12.8262 18.2301 12.8636C18.1788 12.8802 18.1289 12.8995 18.0776 12.9175H18.0264C18.0059 12.8894 17.9891 12.8587 17.9765 12.8262L17.8919 12.5497C17.7356 12.0079 17.5321 11.4809 17.2836 10.9746C16.6049 9.63109 15.4204 8.61072 13.9894 8.13692C12.8714 7.75177 11.6893 7.58601 10.5082 7.64877C9.07246 7.7027 7.95409 7.98757 6.984 8.6071C5.83514 9.29853 5.22675 10.3454 5.19211 11.6301C5.167 12.1477 5.26504 12.6638 5.47821 13.1364C5.69138 13.6089 6.01362 14.0244 6.41857 14.3488C7.17803 14.95 8.0433 15.4044 8.96991 15.6888C9.7141 15.9239 10.4735 16.141 11.2177 16.3595C11.5379 16.4494 11.8594 16.5406 12.1643 16.6485C13.988 17.174 15.6289 17.6995 17.1644 18.4766C18.5336 19.1833 19.4801 19.8899 20.2396 20.7764C20.9321 21.6058 21.4391 22.5732 21.7266 23.614C21.9821 24.5214 22.1126 25.4593 22.1146 26.4019C22.116 26.5664 22.098 26.7296 22.098 26.8914Z" fill="#071E42"/>
<path d="M60.0174 12.4128L54.1927 35.645H47.6169L42.2717 14.2949L36.9182 35.6367H30.3479L24.5454 12.4128H28.2359L33.6407 34.0091L39.0566 12.4128H45.4869L50.8916 34.045L56.3269 12.4128H60.0174Z" fill="#071E42"/>
<path d="M81.8984 35.645H78.3202V31.6927C76.3398 33.3107 74.3955 35.2509 71.6238 35.4389C70.644 35.5772 71.6335 35.5772 70.8422 35.5883C68.1218 35.6892 64.7556 35.8773 62.6879 33.5071C58.8574 29.6959 61.3811 22.7331 66.7734 22.2215C69.0558 22.0832 71.3258 22.2325 73.6527 22.2215C74.9775 22.2215 76.9205 22.1675 77.7755 21.3005C77.9058 21.1622 78.2883 20.7612 78.2869 19.6728C77.9931 17.5985 76.3052 15.9833 74.1058 15.9999C72.5024 15.9999 71.9148 15.9999 70.3045 15.9999C69.7432 16.0207 68.7801 15.9709 68.2257 16.0193C66.1151 16.1852 64.3592 18.0839 64.4562 20.2813H60.8835C60.7034 16.1576 64.4202 12.3339 68.629 12.446C68.9755 12.446 69.9455 12.446 70.3059 12.446C71.4145 12.446 71.876 12.446 72.9902 12.446C75.7688 12.2275 78.7096 13.2259 80.3643 15.5422C81.2124 16.5669 81.7196 18.1171 81.8679 19.5014V19.5124C81.9158 19.9371 81.9255 20.3652 81.897 20.7916V35.645H81.8984ZM77.6771 30.3652C77.882 30.2285 78.0975 30.1082 78.3216 30.0056V26.7186C78.3216 26.1903 78.3216 25.6344 78.3216 25.0785C76.7445 25.7132 74.9955 25.7699 73.6887 25.7699H73.2411L70.608 25.81C69.5423 25.8764 67.4621 25.6385 66.4809 26.0244C63.8368 26.9301 63.9338 30.9916 66.6195 31.7674C68.4045 32.0993 69.4453 31.8532 71.3064 31.9997C73.4018 31.9223 75.7481 31.4466 77.6716 30.3555L77.6771 30.3652Z" fill="#071E42"/>
<path d="M87.9171 35.645H84.3389V12.4266H87.9171V16.3719C89.9058 14.7526 91.8404 12.811 94.6357 12.6147C95.621 12.4764 96.4096 12.4902 97.1967 12.4764C99.2214 12.4045 99.7772 12.262 101.712 13.1678C102.425 13.4937 103.061 13.9669 103.577 14.5562C103.854 14.8812 104.486 15.5049 104.926 16.5088C105.369 17.5432 105.529 18.6769 105.387 19.7931V35.645H101.715V19.0976C101.679 17.8875 100.979 16.6582 99.6358 16.2834C97.8619 15.964 96.8059 16.1949 94.942 16.0525C92.8466 16.141 90.499 16.6056 88.5671 17.7119C88.3621 17.8477 88.1466 17.967 87.9227 18.0687V18.3702C87.9227 18.3881 87.9393 27.2924 87.9227 27.2924C87.8866 27.5942 87.8866 27.8992 87.9227 28.201V35.645H87.9171Z" fill="#071E42"/>
<path d="M116.35 32.2265C116.342 32.273 112.977 32.2265 116.38 32.2265L120.676 34.1515C120.475 34.2091 125.144 35.0808 121.42 35.4528C121.42 35.4528 118.626 35.2661 116.847 35.4804C115.505 35.6436 113.629 34.5124 111.457 31.3788V35.645H107.873V3.70897H111.457V28.9823C111.469 29.1426 111.498 29.3012 111.544 29.4553C111.571 29.5756 111.618 29.6906 111.683 29.7954C111.755 29.9199 111.845 30.0457 111.934 30.1702C113.181 31.9582 114.926 32.2265 116.342 32.2265H116.35Z" fill="#071E42"/>
<path d="M173.236 12.3796V14.9973L170.188 15.7289C171.399 17.2397 172.062 19.1153 172.068 21.0502V25.1269C172.064 26.5082 171.727 27.8683 171.085 29.0923C170.443 30.3164 169.516 31.3686 168.382 32.1601L170.461 34.8388C171.874 36.66 171.985 39.2487 170.531 41.0326C169.258 42.5923 167.603 43.7972 165.726 44.5308C163.849 45.2643 161.814 45.5015 159.818 45.2194C157.822 44.9372 155.933 44.1454 154.334 42.9205C152.735 41.6956 151.48 40.0793 150.692 38.2282C151.889 37.9613 153.07 37.711 154.27 37.4427C154.961 38.7474 155.996 39.8393 157.263 40.6007C158.531 41.3622 159.982 41.7644 161.461 41.7642C162.529 41.7659 163.586 41.5534 164.569 41.1394C165.553 40.7253 166.443 40.1181 167.187 39.3538C167.646 38.8757 167.977 38.2898 168.149 37.6502C168.321 37.0106 168.329 36.338 168.171 35.6948L167.478 32.6953C166.241 33.3798 164.85 33.7417 163.436 33.7477H159.607C158.472 33.7484 157.348 33.5258 156.299 33.0927C155.25 32.6596 154.297 32.0244 153.495 31.2234C152.692 30.4225 152.056 29.4715 151.622 28.425C151.188 27.3784 150.965 26.2567 150.966 25.1241V21.0474C150.966 18.7611 151.874 16.5679 153.492 14.9492C155.11 13.3304 157.306 12.4183 159.597 12.4128H163.426C164.624 12.4145 165.808 12.6663 166.902 13.1522C167.996 13.6381 168.976 14.3472 169.779 15.2338L170.61 12.3782H173.234L173.236 12.3796ZM168.488 21.0474C168.487 19.7063 167.954 18.4202 167.006 17.4702C166.057 16.5202 164.77 15.9836 163.426 15.9778H159.597C158.253 15.9833 156.965 16.5197 156.016 17.4697C155.067 18.4197 154.534 19.7061 154.533 21.0474V25.1255C154.535 26.4648 155.069 27.7488 156.018 28.696C156.967 29.6432 158.253 30.1763 159.596 30.1785H163.425C164.767 30.1763 166.053 29.6434 167.002 28.6966C167.952 27.7497 168.486 26.4661 168.488 25.1269V21.0474Z" fill="#071E42"/>
<path d="M175.684 5.97273C175.684 5.5261 175.817 5.08949 176.065 4.71813C176.314 4.34677 176.667 4.05732 177.081 3.8864C177.494 3.71548 177.949 3.67076 178.388 3.7579C178.827 3.84503 179.231 4.06011 179.547 4.37592C179.864 4.69174 180.079 5.09412 180.166 5.53217C180.254 5.97023 180.209 6.42428 180.038 6.83692C179.866 7.24956 179.576 7.60224 179.204 7.85038C178.832 8.09852 178.394 8.23096 177.947 8.23096C177.347 8.23096 176.771 7.99304 176.347 7.56954C175.922 7.14604 175.684 6.57165 175.684 5.97273ZM176.155 12.4128H179.737V35.645H176.154L176.155 12.4128Z" fill="#071E42"/>
<path d="M195.099 32.0772C196.304 32.0734 197.467 31.6417 198.382 30.8594C199.296 30.0771 199.901 28.9954 200.088 27.8083L203.414 29.2907C202.92 31.1162 201.836 32.7284 200.332 33.8781C198.827 35.0279 196.985 35.6512 195.09 35.6519H191.259C188.966 35.6504 186.768 34.7408 185.147 33.1228C183.525 31.5048 182.614 29.3108 182.613 27.0228V21.0764C182.612 19.9422 182.835 18.8189 183.269 17.7706C183.703 16.7224 184.339 15.7697 185.142 14.9669C185.945 14.1642 186.899 13.5272 187.949 13.0923C188.999 12.6574 190.124 12.433 191.261 12.4321H195.091C196.995 12.4354 198.845 13.0659 200.354 14.2256C201.862 15.3853 202.945 17.0094 203.434 18.8459L200.108 20.3103C199.921 19.1155 199.314 18.0261 198.396 17.2372C197.477 16.4484 196.307 16.0117 195.095 16.0055H191.265C189.92 16.0106 188.631 16.5471 187.681 17.4977C186.732 18.4483 186.198 19.7355 186.197 21.0778V27.0242C186.199 28.3645 186.733 29.6494 187.683 30.5971C188.633 31.5449 189.92 32.0781 191.263 32.0799L195.099 32.0772Z" fill="#071E42"/>
<path d="M223.415 18.8611C223.411 18.1049 223.108 17.3807 222.572 16.8464C222.036 16.312 221.31 16.0108 220.552 16.0082H212.316C211.588 16.0076 210.888 16.2838 210.358 16.7804C209.828 17.277 209.507 17.9567 209.461 18.681C209.416 19.4052 209.649 20.1196 210.113 20.6785C210.576 21.2374 211.236 21.5988 211.958 21.689L221.357 22.8507C222.982 23.0565 224.468 23.8724 225.512 25.1325C226.556 26.3925 227.08 28.0021 226.977 29.6338C226.874 31.2655 226.152 32.7968 224.958 33.9163C223.764 35.0357 222.187 35.6593 220.549 35.6602H212.314C211.468 35.6605 210.63 35.4944 209.847 35.1713C209.065 34.8482 208.355 34.3744 207.756 33.7771C207.158 33.1798 206.683 32.4706 206.36 31.6901C206.036 30.9096 205.87 30.0731 205.87 29.2285V28.6919L209.455 28.0945V29.2202C209.457 29.9777 209.759 30.7038 210.295 31.2397C210.832 31.7757 211.559 32.0777 212.318 32.0799H220.554C221.282 32.0805 221.982 31.8044 222.512 31.3078C223.043 30.8112 223.363 30.1315 223.409 29.4072C223.454 28.6829 223.221 27.9685 222.758 27.4096C222.294 26.8507 221.634 26.4893 220.912 26.3991L211.513 25.2375C209.888 25.0317 208.402 24.2157 207.358 22.9557C206.314 21.6957 205.79 20.0861 205.893 18.4544C205.996 16.8227 206.718 15.2914 207.912 14.1719C209.106 13.0524 210.683 12.4288 212.321 12.428H220.556C221.402 12.4276 222.241 12.5937 223.023 12.9168C223.805 13.2399 224.515 13.7137 225.114 14.311C225.712 14.9084 226.187 15.6176 226.511 16.3981C226.834 17.1785 227.001 18.015 227 18.8597V19.4654L223.419 20.0545L223.415 18.8611Z" fill="#071E42"/>
</svg>
