<svg width="28" height="34" viewBox="0 0 28 34" fill="none" xmlns="http://www.w3.org/2000/svg">
<g clip-path="url(#clip0_107_209)">
<path d="M19.6 32.1996V5.59961M19.6 32.1996L1.40002 28.6996L2.80002 10.4996L19.6 5.59961M19.6 32.1996L26.6 30.0996C26.6 26.3714 26.32 22.6488 25.7614 18.9626L23.982 7.20681H21.7L19.6 5.59961" stroke="white" stroke-width="2.1" stroke-linecap="round" stroke-linejoin="round"/>
<path d="M15.4029 6.82496C15.4127 4.00116 14.3347 1.76816 12.6029 1.44056C10.4175 1.02756 8.01788 3.80796 7.24368 7.65096C7.13354 8.20256 7.06168 8.74156 7.02808 9.26796" stroke="white" stroke-width="2.1" stroke-linecap="round" stroke-linejoin="round"/>
<path d="M18.0137 6.06153C17.6021 4.40813 16.7341 3.23773 15.5525 3.00673C13.6163 2.62873 11.5065 4.90933 10.5769 8.23153M15.1059 13.1931C13.7059 12.6051 10.0659 11.5439 9.10547 14.3719C8.58747 15.8979 9.51707 17.5247 11.5037 19.0857C14.2855 21.2697 13.8137 23.1331 13.3041 23.7995C11.5051 26.1571 7.90427 24.7823 6.70447 23.7995" stroke="white" stroke-width="2.1" stroke-linecap="round" stroke-linejoin="round"/>
<path d="M19.6 32.1996V5.59961M19.6 32.1996L1.40002 28.6996L2.80002 10.4996L19.6 5.59961M19.6 32.1996L26.6 30.0996C26.6 26.3714 26.32 22.6488 25.7614 18.9626L23.982 7.20681H21.7L19.6 5.59961" stroke="white" stroke-width="2.1" stroke-linecap="round" stroke-linejoin="round"/>
<path d="M15.4029 6.82496C15.4127 4.00116 14.3347 1.76816 12.6029 1.44056C10.4175 1.02756 8.01788 3.80796 7.24368 7.65096C7.13354 8.20256 7.06168 8.74156 7.02808 9.26796" stroke="white" stroke-width="2.1" stroke-linecap="round" stroke-linejoin="round"/>
<path d="M18.0137 6.06153C17.6021 4.40813 16.7341 3.23773 15.5525 3.00673C13.6163 2.62873 11.5065 4.90933 10.5769 8.23153M15.1059 13.1931C13.7059 12.6051 10.0659 11.5439 9.10547 14.3719C8.58747 15.8979 9.51707 17.5247 11.5037 19.0857C14.2855 21.2697 13.8137 23.1331 13.3041 23.7995C11.5051 26.1571 7.90427 24.7823 6.70447 23.7995" stroke="white" stroke-width="2.1" stroke-linecap="round" stroke-linejoin="round"/>
</g>
<defs>
<clipPath id="clip0_107_209">
<rect width="28" height="33.6" fill="white"/>
</clipPath>
</defs>
</svg>
