<svg width="40" height="42" viewBox="0 0 40 42" fill="none" xmlns="http://www.w3.org/2000/svg">
<path d="M2.66823 39.1227L15.3411 26.421M31.2998 20.7727L27.5062 32.1791C27.4457 32.3619 27.3421 32.5274 27.2041 32.6616C27.0661 32.7957 26.8979 32.8945 26.7137 32.9495L3.4588 39.8772C3.24929 39.9395 3.02673 39.9431 2.81533 39.8875C2.60394 39.8319 2.41181 39.7192 2.25986 39.5618C2.10791 39.4044 2.00196 39.2082 1.95353 38.9946C1.9051 38.7809 1.91606 38.5581 1.9852 38.3503L9.53637 15.6493C9.59049 15.4863 9.67896 15.3369 9.79579 15.2112C9.91261 15.0855 10.055 14.9865 10.2134 14.9208L20.9408 10.494C21.1589 10.4037 21.3988 10.3802 21.6302 10.4264C21.8616 10.4725 22.0742 10.5864 22.2411 10.7535L31.011 19.5473C31.1679 19.7045 31.2781 19.9024 31.3291 20.1189C31.3801 20.3353 31.3699 20.5617 31.2998 20.7727Z" stroke="#101700" stroke-width="3.13636" stroke-linecap="round" stroke-linejoin="round"/>
<path d="M31.5339 20.0706L37.1654 14.4243C37.912 13.6757 38.3315 12.6606 38.3315 11.6021C38.3315 10.5436 37.912 9.52852 37.1654 8.77996L32.9438 4.54472C32.5739 4.17389 32.1348 3.87971 31.6515 3.67901C31.1682 3.4783 30.6502 3.375 30.127 3.375C29.6039 3.375 29.0858 3.4783 28.6025 3.67901C28.1192 3.87971 27.6801 4.17389 27.3102 4.54472L21.6787 10.191M19.5639 22.1862C19.2865 21.9082 18.9571 21.6878 18.5946 21.5374C18.2322 21.387 17.8437 21.3097 17.4514 21.3098C17.0591 21.3099 16.6707 21.3874 16.3083 21.5379C15.9459 21.6885 15.6166 21.9091 15.3393 22.1872C15.062 22.4653 14.842 22.7954 14.692 23.1587C14.5419 23.522 14.4648 23.9113 14.4648 24.3045C14.4649 24.6977 14.5423 25.087 14.6925 25.4502C14.8427 25.8135 15.0628 26.1435 15.3403 26.4214C15.9006 26.9828 16.6605 27.2981 17.4528 27.2979C18.2451 27.2977 19.0048 26.9821 19.5649 26.4204C20.125 25.8588 20.4396 25.0972 20.4394 24.3031C20.4392 23.509 20.1243 22.7476 19.5639 22.1862Z" stroke="#101700" stroke-width="3.13636" stroke-linecap="round" stroke-linejoin="round"/>
</svg>
