<svg width="33" height="34" viewBox="0 0 33 34" fill="none" xmlns="http://www.w3.org/2000/svg">
<g clip-path="url(#clip0_107_220)">
<path d="M2.13398 31.2978L12.2723 21.1364M25.0392 16.6178L22.0044 25.7429C21.956 25.8892 21.873 26.0216 21.7627 26.1289C21.6523 26.2362 21.5177 26.3152 21.3703 26.3592L2.76643 31.9013C2.59882 31.9512 2.42077 31.9541 2.25166 31.9096C2.08254 31.8651 1.92884 31.775 1.80728 31.649C1.68572 31.5231 1.60095 31.3661 1.56221 31.1953C1.52347 31.0244 1.53224 30.8461 1.58755 30.6799L7.62849 12.5191C7.67178 12.3887 7.74256 12.2691 7.83602 12.1686C7.92948 12.068 8.04343 11.9888 8.17013 11.9363L16.752 8.39481C16.9265 8.32259 17.1184 8.30376 17.3035 8.3407C17.4887 8.37764 17.6587 8.4687 17.7923 8.60238L24.8082 15.6374C24.9337 15.7632 25.0218 15.9216 25.0626 16.0947C25.1034 16.2679 25.0953 16.449 25.0392 16.6178Z" stroke="#101700" stroke-width="2.50909" stroke-linecap="round" stroke-linejoin="round"/>
<path d="M25.2272 16.0562L29.7324 11.5391C30.3297 10.9403 30.6653 10.1282 30.6653 9.2814C30.6653 8.43462 30.3297 7.62252 29.7324 7.02367L26.3551 3.63549C26.0592 3.33882 25.7079 3.10348 25.3213 2.94291C24.9346 2.78235 24.5202 2.69971 24.1017 2.69971C23.6832 2.69971 23.2687 2.78235 22.8821 2.94291C22.4955 3.10348 22.1442 3.33882 21.8483 3.63549L17.3431 8.15253M15.6512 17.7487C15.4293 17.5263 15.1658 17.3499 14.8758 17.2296C14.5858 17.1093 14.275 17.0474 13.9612 17.0475C13.6474 17.0476 13.3366 17.1096 13.0467 17.2301C12.7568 17.3505 12.4934 17.527 12.2715 17.7495C12.0497 17.9719 11.8737 18.236 11.7537 18.5267C11.6336 18.8173 11.5719 19.1288 11.572 19.4433C11.572 19.7579 11.6339 20.0693 11.7541 20.3599C11.8743 20.6505 12.0504 20.9145 12.2723 21.1369C12.7206 21.5859 13.3285 21.8382 13.9623 21.838C14.5962 21.8379 15.204 21.5854 15.652 21.1361C16.1001 20.6868 16.3517 20.0775 16.3516 19.4422C16.3514 18.8069 16.0995 18.1978 15.6512 17.7487Z" stroke="#101700" stroke-width="2.50909" stroke-linecap="round" stroke-linejoin="round"/>
<path d="M2.13392 31.2978L12.2722 21.1364M25.0391 16.6178L22.0043 25.7429C21.9559 25.8892 21.873 26.0216 21.7626 26.1289C21.6522 26.2362 21.5176 26.3152 21.3703 26.3592L2.76637 31.9013C2.59876 31.9512 2.42071 31.9541 2.2516 31.9096C2.08248 31.8651 1.92878 31.775 1.80722 31.649C1.68566 31.5231 1.60089 31.3661 1.56215 31.1953C1.52341 31.0244 1.53217 30.8461 1.58749 30.6799L7.62843 12.5191C7.67172 12.3887 7.7425 12.2691 7.83596 12.1686C7.92942 12.068 8.04337 11.9888 8.17007 11.9363L16.752 8.39481C16.9264 8.32259 17.1183 8.30376 17.3035 8.3407C17.4886 8.37764 17.6587 8.4687 17.7922 8.60238L24.8081 15.6374C24.9337 15.7632 25.0218 15.9216 25.0626 16.0947C25.1034 16.2679 25.0953 16.449 25.0391 16.6178Z" stroke="#101700" stroke-width="2.50909" stroke-linecap="round" stroke-linejoin="round"/>
<path d="M25.2271 16.0562L29.7323 11.5391C30.3297 10.9403 30.6652 10.1282 30.6652 9.2814C30.6652 8.43462 30.3297 7.62252 29.7323 7.02367L26.355 3.63549C26.0592 3.33882 25.7079 3.10348 25.3212 2.94291C24.9346 2.78235 24.5201 2.69971 24.1016 2.69971C23.6831 2.69971 23.2687 2.78235 22.882 2.94291C22.4954 3.10348 22.1441 3.33882 21.8482 3.63549L17.343 8.15253M15.6512 17.7487C15.4292 17.5263 15.1657 17.3499 14.8757 17.2296C14.5858 17.1093 14.275 17.0474 13.9611 17.0475C13.6473 17.0476 13.3366 17.1096 13.0467 17.2301C12.7567 17.3505 12.4933 17.527 12.2715 17.7495C12.0496 17.9719 11.8736 18.236 11.7536 18.5267C11.6336 18.8173 11.5718 19.1288 11.5719 19.4433C11.572 19.7579 11.6339 20.0693 11.754 20.3599C11.8742 20.6505 12.0503 20.9145 12.2723 21.1369C12.7205 21.5859 13.3285 21.8382 13.9623 21.838C14.5961 21.8379 15.2039 21.5854 15.652 21.1361C16.1 20.6868 16.3517 20.0775 16.3515 19.4422C16.3514 18.8069 16.0994 18.1978 15.6512 17.7487Z" stroke="#101700" stroke-width="2.50909" stroke-linecap="round" stroke-linejoin="round"/>
</g>
<defs>
<clipPath id="clip0_107_220">
<rect width="32.0727" height="33.6" fill="white"/>
</clipPath>
</defs>
</svg>
