<svg width="18" height="18" viewBox="0 0 18 18" fill="none" xmlns="http://www.w3.org/2000/svg">
<g clip-path="url(#clip0_0_821)">
<path d="M9.0009 6.3C8.28482 6.3 7.59806 6.58446 7.09171 7.09081C6.58536 7.59716 6.3009 8.28392 6.3009 9C6.3009 9.71608 6.58536 10.4028 7.09171 10.9092C7.59806 11.4155 8.28482 11.7 9.0009 11.7C9.71698 11.7 10.4037 11.4155 10.9101 10.9092C11.4164 10.4028 11.7009 9.71608 11.7009 9C11.7009 8.28392 11.4164 7.59716 10.9101 7.09081C10.4037 6.58446 9.71698 6.3 9.0009 6.3ZM9.0009 4.5C10.1944 4.5 11.339 4.97411 12.1829 5.81802C13.0268 6.66193 13.5009 7.80653 13.5009 9C13.5009 10.1935 13.0268 11.3381 12.1829 12.182C11.339 13.0259 10.1944 13.5 9.0009 13.5C7.80743 13.5 6.66283 13.0259 5.81892 12.182C4.97501 11.3381 4.5009 10.1935 4.5009 9C4.5009 7.80653 4.97501 6.66193 5.81892 5.81802C6.66283 4.97411 7.80743 4.5 9.0009 4.5ZM14.8509 4.275C14.8509 4.57337 14.7324 4.85952 14.5214 5.0705C14.3104 5.28147 14.0243 5.4 13.7259 5.4C13.4275 5.4 13.1414 5.28147 12.9304 5.0705C12.7194 4.85952 12.6009 4.57337 12.6009 4.275C12.6009 3.97663 12.7194 3.69048 12.9304 3.4795C13.1414 3.26853 13.4275 3.15 13.7259 3.15C14.0243 3.15 14.3104 3.26853 14.5214 3.4795C14.7324 3.69048 14.8509 3.97663 14.8509 4.275ZM9.0009 1.8C6.7743 1.8 6.4107 1.8063 5.3748 1.8522C4.6692 1.8855 4.1958 1.98 3.7566 2.151C3.38925 2.28633 3.05705 2.50257 2.7846 2.7837C2.50315 3.05606 2.2866 3.38826 2.151 3.7557C1.98 4.1967 1.8855 4.6692 1.8531 5.3739C1.8063 6.3675 1.8 6.7149 1.8 9C1.8 11.2275 1.8063 11.5902 1.8522 12.6261C1.8855 13.3308 1.98 13.8051 2.1501 14.2434C2.3031 14.6349 2.4831 14.9166 2.7819 15.2154C3.0852 15.5178 3.3669 15.6987 3.7539 15.8481C4.1985 16.02 4.6719 16.1154 5.3739 16.1478C6.3675 16.1946 6.7149 16.2 9 16.2C11.2275 16.2 11.5902 16.1937 12.6261 16.1478C13.3299 16.1145 13.8033 16.02 14.2434 15.8499C14.6108 15.7146 14.943 15.4983 15.2154 15.2172C15.5187 14.9148 15.6996 14.6331 15.849 14.2452C16.02 13.8024 16.1154 13.329 16.1478 12.6252C16.1946 11.6325 16.2 11.2842 16.2 9C16.2 6.7734 16.1937 6.4098 16.1478 5.3739C16.1145 4.6701 16.0191 4.1949 15.849 3.7557C15.7137 3.38835 15.4974 3.05615 15.2163 2.7837C14.9439 2.50225 14.6117 2.2857 14.2443 2.1501C13.8033 1.9791 13.3299 1.8846 12.6261 1.8522C11.6334 1.8054 11.286 1.8 9 1.8M9 0C11.4453 0 11.7504 0.00899995 12.7107 0.0539999C13.6683 0.0989999 14.3217 0.2493 14.895 0.4725C15.489 0.7011 15.9894 1.0107 16.4898 1.5102C16.9476 1.95996 17.3018 2.50423 17.5275 3.105C17.7498 3.6783 17.901 4.3317 17.946 5.2902C17.9883 6.2496 18 6.5547 18 9C18 11.4453 17.991 11.7504 17.946 12.7098C17.901 13.6692 17.7498 14.3208 17.5275 14.895C17.3018 15.4958 16.9476 16.04 16.4898 16.4898C16.04 16.9476 15.4958 17.3018 14.895 17.5275C14.3217 17.7498 13.6683 17.901 12.7107 17.946C11.7504 17.9883 11.4453 18 9 18C6.5547 18 6.2496 17.991 5.2893 17.946C4.3317 17.901 3.6792 17.7498 3.105 17.5275C2.50423 17.3018 1.95996 16.9476 1.5102 16.4898C1.05238 16.04 0.698234 15.4958 0.4725 14.895C0.2493 14.3217 0.0989999 13.6683 0.0539999 12.7098C0.0107999 11.7504 0 11.4453 0 9C0 6.5547 0.00899995 6.2496 0.0539999 5.2902C0.0989999 4.3308 0.2493 3.6792 0.4725 3.105C0.698234 2.50423 1.05238 1.95996 1.5102 1.5102C1.95996 1.05238 2.50423 0.698234 3.105 0.4725C3.6783 0.2493 4.3308 0.0989999 5.2893 0.0539999C6.2505 0.0116999 6.5556 0 9.0009 0" fill="white"/>
</g>
<defs>
<clipPath id="clip0_0_821">
<rect width="18" height="18" fill="white"/>
</clipPath>
</defs>
</svg>
