<svg width="19" height="19" viewBox="0 0 19 19" fill="none" xmlns="http://www.w3.org/2000/svg">
<g clip-path="url(#clip0_0_832)">
<path fill-rule="evenodd" clip-rule="evenodd" d="M2.71417 0.226562C2.05429 0.226563 1.42143 0.4887 0.954821 0.955309C0.488212 1.42192 0.226074 2.05477 0.226074 2.71466C0.226074 3.37454 0.488212 4.0074 0.954821 4.47401C1.42143 4.94062 2.05429 5.20275 2.71417 5.20275C3.37405 5.20275 4.00691 4.94062 4.47352 4.47401C4.94013 4.0074 5.20226 3.37454 5.20226 2.71466C5.20226 2.05477 4.94013 1.42192 4.47352 0.955309C4.00691 0.4887 3.37405 0.226563 2.71417 0.226562ZM1.58322 2.71466C1.58322 2.41471 1.70237 2.12705 1.91447 1.91495C2.12656 1.70286 2.41422 1.58371 2.71417 1.58371C3.01412 1.58371 3.30178 1.70286 3.51387 1.91495C3.72597 2.12705 3.84512 2.41471 3.84512 2.71466C3.84512 3.01461 3.72597 3.30227 3.51387 3.51436C3.30178 3.72646 3.01412 3.84561 2.71417 3.84561C2.41422 3.84561 2.12656 3.72646 1.91447 3.51436C1.70237 3.30227 1.58322 3.01461 1.58322 2.71466ZM0.226074 6.33371C0.226074 6.15374 0.297566 5.98114 0.424823 5.85388C0.55208 5.72663 0.724677 5.65513 0.904646 5.65513H4.52369C4.70366 5.65513 4.87626 5.72663 5.00352 5.85388C5.13077 5.98114 5.20226 6.15374 5.20226 6.33371V18.0956C5.20226 18.2756 5.13077 18.4482 5.00352 18.5754C4.87626 18.7027 4.70366 18.7742 4.52369 18.7742H0.904646C0.724677 18.7742 0.55208 18.7027 0.424823 18.5754C0.297566 18.4482 0.226074 18.2756 0.226074 18.0956V6.33371ZM1.58322 7.01228V17.417H3.84512V7.01228H1.58322ZM6.55941 6.33371C6.55941 6.15374 6.6309 5.98114 6.75816 5.85388C6.88541 5.72663 7.05801 5.65513 7.23798 5.65513H10.857C11.037 5.65513 11.2096 5.72663 11.3368 5.85388C11.4641 5.98114 11.5356 6.15374 11.5356 6.33371V6.72637L11.9292 6.55718C12.6078 6.2673 13.3277 6.08565 14.0626 6.01885C16.5733 5.79085 18.7737 7.76323 18.7737 10.2966V18.0956C18.7737 18.2756 18.7022 18.4482 18.5749 18.5754C18.4477 18.7027 18.2751 18.7742 18.0951 18.7742H14.4761C14.2961 18.7742 14.1235 18.7027 13.9963 18.5754C13.869 18.4482 13.7975 18.2756 13.7975 18.0956V11.7623C13.7975 11.4623 13.6784 11.1747 13.4663 10.9626C13.2542 10.7505 12.9665 10.6313 12.6666 10.6313C12.3666 10.6313 12.0789 10.7505 11.8668 10.9626C11.6548 11.1747 11.5356 11.4623 11.5356 11.7623V18.0956C11.5356 18.2756 11.4641 18.4482 11.3368 18.5754C11.2096 18.7027 11.037 18.7742 10.857 18.7742H7.23798C7.05801 18.7742 6.88541 18.7027 6.75816 18.5754C6.6309 18.4482 6.55941 18.2756 6.55941 18.0956V6.33371ZM7.91655 7.01228V17.417H10.1785V11.7623C10.1785 11.1024 10.4406 10.4695 10.9072 10.0029C11.3738 9.53632 12.0067 9.27418 12.6666 9.27418C13.3264 9.27418 13.9593 9.53632 14.4259 10.0029C14.8925 10.4695 15.1546 11.1024 15.1546 11.7623V17.417H17.4165V10.2966C17.4165 8.5739 15.9137 7.21313 14.1866 7.37056C13.5932 7.4244 13.0119 7.57094 12.4639 7.80485L11.1248 8.37937C11.0216 8.42373 10.9089 8.44175 10.7969 8.43179C10.6849 8.42183 10.5772 8.38421 10.4834 8.32232C10.3895 8.26042 10.3126 8.17619 10.2593 8.07718C10.2061 7.97817 10.1783 7.86749 10.1785 7.75509V7.01228H7.91655Z" fill="white"/>
</g>
<defs>
<clipPath id="clip0_0_832">
<rect width="19" height="19" fill="white"/>
</clipPath>
</defs>
</svg>
