<svg width="142" height="151" viewBox="0 0 142 151" fill="none" xmlns="http://www.w3.org/2000/svg">
<path d="M26.1637 122.781L26.8096 118.601L47.5633 121.808L46.4226 129.19L26.8579 135.183L45.0619 137.996L44.4159 142.176L23.6622 138.969L24.8076 131.557L44.3676 125.594L26.1637 122.781ZM47.0604 115.348C45.2392 116.601 43.0874 116.915 40.6049 116.29C38.1224 115.665 36.3759 114.369 35.3655 112.403C34.355 110.437 34.1941 108.086 34.8827 105.351C35.5713 102.617 36.8237 100.633 38.64 99.3987C40.4611 98.1455 42.613 97.8314 45.0955 98.4565C47.578 99.0817 49.3245 100.377 50.3349 102.344C51.3503 104.29 51.5136 106.631 50.825 109.366C50.1364 112.1 48.8815 114.094 47.0604 115.348ZM38.4982 110.036C39.1706 111.134 40.2147 111.86 41.6305 112.217C43.0463 112.573 44.3101 112.428 45.4221 111.78C46.534 111.131 47.278 110.061 47.654 108.567C48.03 107.074 47.8819 105.779 47.2095 104.681C46.5371 103.584 45.493 102.857 44.0772 102.5C42.6614 102.144 41.3976 102.29 40.2856 102.938C39.1737 103.586 38.4297 104.657 38.0537 106.15C37.6776 107.643 37.8258 108.939 38.4982 110.036ZM43.4486 94.3824L46.3886 85.3698L49.4973 86.3839L46.5574 95.3965L43.4486 94.3824ZM56.1956 82.1729C53.6384 83.2422 50.8239 83.1468 47.7524 81.8865C44.6809 80.6263 42.6029 78.7361 41.5184 76.2158C40.4415 73.677 40.5635 70.7978 41.8844 67.5783C42.9624 64.9508 44.4444 63.0512 46.3304 61.8794C48.1978 60.7 50.2176 60.3613 52.3896 60.8633L51.0778 64.9297C49.8875 64.7224 48.7597 64.9947 47.6945 65.7466C46.6185 66.4725 45.792 67.5385 45.215 68.9448C44.4027 70.9246 44.4223 72.6945 45.2739 74.2545C46.107 75.807 47.4949 76.9817 49.4378 77.7788C51.4361 78.5987 53.2829 78.7079 54.9781 78.1064C56.6733 77.5048 57.9309 76.2049 58.7508 74.2065C59.3809 72.6708 59.5287 71.283 59.1943 70.0433C58.8489 68.7775 58.152 67.7889 57.1035 67.0777L58.9817 63.2113C61.0469 64.4477 62.3691 66.1252 62.9484 68.2436C63.5091 70.3544 63.2201 72.7976 62.0813 75.573C60.7224 78.8851 58.7605 81.0851 56.1956 82.1729ZM66.0798 60.9483C64.0178 61.7456 61.8518 61.5526 59.5816 60.3694C57.3114 59.1862 55.9126 57.5212 55.3852 55.3744C54.8577 53.2275 55.2456 50.9037 56.549 48.403C57.8524 45.9023 59.5304 44.2621 61.5831 43.4826C63.645 42.6853 65.811 42.8783 68.0812 44.0615C70.3514 45.2447 71.7502 46.9097 72.2777 49.0566C72.8144 51.1857 72.4311 53.5006 71.1277 56.0013C69.8243 58.5021 68.1417 60.1511 66.0798 60.9483ZM58.9809 53.7978C59.3808 55.0211 60.2281 55.9702 61.5228 56.645C62.8175 57.3197 64.0807 57.4707 65.3126 57.0978C66.5444 56.7249 67.5162 55.8556 68.2279 54.49C68.9397 53.1243 69.0956 51.8299 68.6958 50.6065C68.2959 49.3832 67.4486 48.4342 66.1539 47.7594C64.8592 47.0846 63.5959 46.9336 62.3641 47.3065C61.1323 47.6794 60.1605 48.5487 59.4488 49.9143C58.737 51.28 58.5811 52.5745 58.9809 53.7978ZM64.9555 22.2253L67.2242 18.6552L85.86 30.4972L83.7361 33.8395L81.2041 32.2305C81.8 33.3437 82.0424 34.5285 81.9312 35.7849C81.8139 37.0137 81.3906 38.202 80.6612 39.3498C79.4384 41.2742 77.8247 42.4525 75.8201 42.8849C73.7987 43.3065 71.716 42.8362 69.5722 41.4739C67.4284 40.1117 66.1266 38.4313 65.6666 36.4329C65.1898 34.4238 65.5681 32.4486 66.8017 30.5074C68.2497 28.2285 70.1242 27.05 72.425 26.9718L64.9555 22.2253ZM78.6092 36.4819C79.4137 35.2159 79.6721 33.9702 79.3844 32.7448C79.0968 31.5194 78.32 30.5044 77.0539 29.6999C75.7879 28.8954 74.5391 28.6232 73.3075 28.8833C72.076 29.1433 71.0579 29.9063 70.2535 31.1724C69.4597 32.4215 69.2066 33.6588 69.4943 34.8842C69.7819 36.1096 70.5588 37.1246 71.8248 37.9291C73.0908 38.7335 74.3396 39.0058 75.5712 38.7457C76.8028 38.4857 77.8154 37.7311 78.6092 36.4819ZM92.8476 9.36148L93.2295 9.65221L84.9072 20.585C87.2819 21.89 89.396 21.3251 91.2495 18.8903C92.4488 17.3148 92.7875 15.8132 92.2657 14.3854L94.9222 11.2423C95.797 12.5366 96.1306 13.9971 95.9229 15.6236C95.6994 17.2381 94.9214 18.9205 93.5888 20.6711C91.8202 22.9945 89.8799 24.4207 87.7681 24.9496C85.6525 25.4505 83.5045 24.8711 81.3243 23.2115C79.1601 21.564 78.0316 19.6619 77.939 17.5052C77.8586 15.3325 78.6724 13.1243 80.3804 10.8804C83.9177 6.23359 88.0735 5.72727 92.8476 9.36148ZM82.7198 12.6612C81.9081 13.7274 81.4904 14.8045 81.4666 15.8923C81.455 16.9643 81.8997 17.9815 82.8009 18.9439L88.5793 11.353C87.5639 10.7058 86.5433 10.4945 85.5177 10.7191C84.4762 10.9317 83.5435 11.5791 82.7198 12.6612Z" fill="white"/>
</svg>
