<svg width="18" height="18" viewBox="0 0 18 18" fill="none" xmlns="http://www.w3.org/2000/svg">
<path d="M3.2143 4.82143C3.2143 3.54271 3.72227 2.31636 4.62646 1.41216C5.53065 0.50797 6.757 0 8.03573 0C9.31445 0 10.5408 0.50797 11.445 1.41216C12.3492 2.31636 12.8572 3.54271 12.8572 4.82143C12.8572 4.99192 12.7894 5.15544 12.6689 5.276C12.5483 5.39656 12.3848 5.46429 12.2143 5.46429C12.0438 5.46429 11.8803 5.39656 11.7597 5.276C11.6392 5.15544 11.5714 4.99192 11.5714 4.82143C11.5714 3.8837 11.1989 2.98438 10.5359 2.3213C9.87278 1.65823 8.97346 1.28571 8.03573 1.28571C7.098 1.28571 6.19867 1.65823 5.5356 2.3213C4.87252 2.98438 4.50001 3.8837 4.50001 4.82143C4.50001 4.99192 4.43228 5.15544 4.31172 5.276C4.19116 5.39656 4.02765 5.46429 3.85715 5.46429C3.68666 5.46429 3.52315 5.39656 3.40259 5.276C3.28203 5.15544 3.2143 4.99192 3.2143 4.82143ZM14.4643 8.35714C14.0893 8.35673 13.7202 8.45039 13.3907 8.62955C13.2923 8.32492 13.13 8.0448 12.9146 7.80791C12.6993 7.57102 12.4358 7.38281 12.1419 7.25586C11.848 7.12892 11.5304 7.06615 11.2103 7.07176C10.8902 7.07737 10.575 7.15123 10.2857 7.28839V4.82143C10.2857 4.22469 10.0487 3.6524 9.62672 3.23044C9.20476 2.80848 8.63246 2.57143 8.03573 2.57143C7.43899 2.57143 6.86669 2.80848 6.44474 3.23044C6.02278 3.6524 5.78573 4.22469 5.78573 4.82143V11.25L5.47876 10.7574C5.17858 10.2416 4.68577 9.86607 4.10875 9.71356C3.53172 9.56105 2.91774 9.64402 2.40189 9.9442C1.88603 10.2444 1.51055 10.7372 1.35804 11.3142C1.20553 11.8912 1.28849 12.5052 1.58867 13.0211L3.94474 17.0389C3.98426 17.1172 4.03936 17.1865 4.10666 17.2427C4.17396 17.2989 4.25204 17.3407 4.3361 17.3656C4.42016 17.3905 4.50842 17.3979 4.59546 17.3874C4.68249 17.3769 4.76646 17.3488 4.84221 17.3046C4.91795 17.2605 4.98387 17.2013 5.03592 17.1308C5.08796 17.0602 5.12502 16.9798 5.14483 16.8944C5.16463 16.809 5.16676 16.7205 5.15109 16.6342C5.13541 16.548 5.10226 16.4658 5.05367 16.3929L2.70001 12.375C2.63393 12.2652 2.59039 12.1434 2.57192 12.0166C2.55345 11.8899 2.56042 11.7607 2.59244 11.6366C2.62445 11.5126 2.68087 11.3962 2.75838 11.2942C2.8359 11.1922 2.93296 11.1066 3.0439 11.0426C3.15485 10.9785 3.27744 10.9372 3.40453 10.921C3.53162 10.9049 3.66066 10.9142 3.7841 10.9485C3.90754 10.9828 4.02292 11.0413 4.12349 11.1207C4.22405 11.2 4.3078 11.2986 4.36983 11.4107L4.38108 11.4292L5.88215 13.8399C5.95585 13.9588 6.06634 14.0505 6.19684 14.1009C6.32734 14.1513 6.47073 14.1578 6.60525 14.1194C6.73977 14.0809 6.85807 13.9996 6.94221 13.8879C7.02634 13.7761 7.07172 13.6399 7.07144 13.5V4.82143C7.07144 4.56568 7.17303 4.32041 7.35387 4.13958C7.53471 3.95874 7.77998 3.85714 8.03573 3.85714C8.29147 3.85714 8.53674 3.95874 8.71758 4.13958C8.89842 4.32041 9.00001 4.56568 9.00001 4.82143V10.2857C9.00001 10.4562 9.06774 10.6197 9.1883 10.7403C9.30886 10.8608 9.47237 10.9286 9.64287 10.9286C9.81336 10.9286 9.97688 10.8608 10.0974 10.7403C10.218 10.6197 10.2857 10.4562 10.2857 10.2857V9.32143C10.2857 9.06568 10.3873 8.82041 10.5682 8.63958C10.749 8.45874 10.9943 8.35714 11.25 8.35714C11.5058 8.35714 11.751 8.45874 11.9319 8.63958C12.1127 8.82041 12.2143 9.06568 12.2143 9.32143V10.9286C12.2143 11.0991 12.282 11.2626 12.4026 11.3831C12.5231 11.5037 12.6867 11.5714 12.8572 11.5714C13.0277 11.5714 13.1912 11.5037 13.3117 11.3831C13.4323 11.2626 13.5 11.0991 13.5 10.9286V10.6071C13.5 10.3514 13.6016 10.1061 13.7824 9.92529C13.9633 9.74445 14.2086 9.64286 14.4643 9.64286C14.72 9.64286 14.9653 9.74445 15.1461 9.92529C15.327 10.1061 15.4286 10.3514 15.4286 10.6071V13.5C15.4286 15.2365 14.858 16.417 14.8532 16.4266C14.7771 16.5791 14.7646 16.7556 14.8185 16.9173C14.8725 17.079 14.9884 17.2126 15.1409 17.2888C15.2301 17.3339 15.3287 17.3573 15.4286 17.3571C15.548 17.3572 15.6651 17.324 15.7667 17.2613C15.8684 17.1986 15.9505 17.1088 16.0039 17.002C16.0337 16.9433 16.7151 15.5555 16.7151 13.5V10.6071C16.7151 10.3116 16.6569 10.019 16.5438 9.74592C16.4306 9.47288 16.2648 9.22481 16.0558 9.01587C15.8468 8.80693 15.5987 8.64121 15.3256 8.52818C15.0525 8.41516 14.7598 8.35704 14.4643 8.35714Z" fill="#9B82F6"/>
</svg>
