<svg width="149" height="192" viewBox="0 0 149 192" fill="none" xmlns="http://www.w3.org/2000/svg">
<path d="M25.1119 29.7599L29.1027 31.706L22.962 44.2986C21.8925 46.4917 20.4299 47.8256 18.5741 48.3002C16.745 48.7656 14.6531 48.4241 12.2981 47.2757C9.90728 46.1098 8.34104 44.6674 7.59945 42.9484C6.86663 41.2114 6.99551 39.3273 7.98609 37.296L8.85394 35.5163L12.5211 37.3046L11.6927 39.0034C11.1755 40.064 11.1 41.0174 11.4662 41.8635C11.8504 42.7183 12.6177 43.4263 13.7682 43.9873C16.1411 45.1445 17.9193 44.5096 19.1027 42.0828L25.1119 29.7599ZM38.0995 42.4835C40.3237 43.7908 41.7333 45.2805 42.328 46.9524C42.9502 48.6173 42.6887 50.4239 41.5435 52.3722L36.8309 60.3898L33.417 58.3832L34.9524 55.771C32.6347 57.0302 30.1137 56.8592 27.3895 55.2579C25.6825 54.2546 24.6072 53.1238 24.1637 51.8655C23.7201 50.6072 23.853 49.3746 24.5625 48.1677C25.3428 46.84 26.4738 46.1592 27.9553 46.1253C29.454 46.1014 31.3317 46.6367 33.5883 47.7311L38.0792 49.9184L38.3528 49.4529C38.7988 48.6942 38.8862 47.9337 38.6152 47.1712C38.3543 46.3915 37.6858 45.6738 36.6097 45.0181C34.6096 43.8424 33.1124 43.844 32.118 45.0226L28.73 43.0312C29.4374 41.9854 30.3214 41.3103 31.382 41.0057C32.4598 40.7113 33.5403 40.7084 34.6234 40.997C35.7166 41.2684 36.8753 41.7639 38.0995 42.4835ZM29.9655 53.3618C31.3276 54.1624 32.6151 54.4784 33.8278 54.3096C35.0405 54.1409 35.9307 53.5737 36.4982 52.6082L36.8174 52.0651L32.8073 50.1255C30.4543 48.9977 28.9485 48.9941 28.2897 50.1149C27.9857 50.6321 27.9666 51.1777 28.2325 51.7516C28.5085 52.3082 29.0862 52.8449 29.9655 53.3618ZM58.7722 56.4042L62.4905 58.9916L48.4143 68.348L43.1939 64.7153L47.1493 48.3163L50.9169 50.938L47.1899 64.6452L58.7722 56.4042ZM71.127 65.5731C73.1232 67.2076 74.2862 68.8967 74.6163 70.6404C74.9744 72.3812 74.4376 74.1259 73.0058 75.8745L67.1139 83.07L64.05 80.5612L65.9696 78.2169C63.4856 79.1038 61.0211 78.5463 58.5762 76.5443C57.0442 75.2899 56.1561 74.0069 55.9117 72.6953C55.6674 71.3837 55.9887 70.1863 56.8756 69.1031C57.8513 67.9116 59.0736 67.4132 60.5427 67.608C62.0272 67.8154 63.7999 68.6337 65.8609 70.0628L69.9611 72.9161L70.3032 72.4983C70.8607 71.8174 71.0643 71.0794 70.9141 70.2843C70.7765 69.4737 70.2266 68.6615 69.2644 67.8478C67.4694 66.378 65.9898 66.1488 64.8256 67.1601L61.785 64.6703C62.6451 63.7461 63.6226 63.2152 64.7175 63.0778C65.8278 62.9529 66.8958 63.1166 67.9215 63.5687C68.9598 64.0053 70.0283 64.6735 71.127 65.5731ZM61.4136 75.0679C62.6361 76.0689 63.8595 76.5795 65.0837 76.5996C66.308 76.6198 67.2749 76.1966 67.9844 75.3301L68.3836 74.8426L64.7202 72.3083C62.5692 70.8313 61.0819 70.5957 60.2583 71.6015C59.8781 72.0657 59.7752 72.6018 59.9495 73.2098C60.1364 73.8023 60.6245 74.4217 61.4136 75.0679ZM82.8801 88.3532C82.0863 89.2586 81.7639 90.3067 81.9127 91.4975C82.0616 92.6882 82.8098 93.9814 84.1573 95.377C84.7964 96.0388 85.4232 96.5873 86.038 97.0224C86.6671 97.4436 87.2989 97.7093 87.9335 97.8194C88.5963 97.93 89.1436 97.777 89.5752 97.3602C90.0212 96.9296 90.1934 96.388 90.0916 95.7356C90.0043 95.0693 89.6592 94.1792 89.0564 93.0654L86.2194 87.8813C84.4645 84.7105 84.5942 82.1526 86.6085 80.2077C88.0617 78.8046 89.7106 78.3385 91.5552 78.8093C93.4138 79.2945 95.2044 80.4291 96.927 82.2132C98.7746 84.1268 99.8716 86.0979 100.218 88.1266C100.593 90.1559 100.094 91.9717 98.7222 93.5743L95.6746 90.7203C96.3107 89.9394 96.5463 89.0029 96.3816 87.9109C96.2307 86.8333 95.5788 85.6974 94.4257 84.5032C93.5366 83.5824 92.684 83.0017 91.8679 82.761C91.08 82.5209 90.4199 82.6579 89.8875 83.1719C89.0962 83.9359 89.2076 85.2462 90.2217 87.1028L92.9776 92.0733C93.965 93.8445 94.4683 95.388 94.4877 96.7037C94.5353 98.02 94.0052 99.213 92.8974 100.283C91.3867 101.741 89.6599 102.213 87.717 101.698C85.7741 101.183 83.7677 99.8539 81.6977 97.7101C79.4889 95.4225 78.2329 93.2434 77.9297 91.173C77.6548 89.1032 78.3107 87.191 79.8973 85.4367L82.8801 88.3532ZM105.574 116.075C103.908 117.069 102.171 117.296 100.365 116.754C98.5862 116.216 96.9649 115.047 95.5009 113.247C93.7341 111.075 92.8903 108.912 92.9696 106.76C93.0616 104.622 94.1316 102.721 96.1796 101.055C98.2121 99.4016 100.284 98.7475 102.395 99.0927C104.522 99.4252 106.45 100.654 108.179 102.78C109.605 104.533 110.408 106.329 110.589 108.167C110.769 110.006 110.234 111.614 108.983 112.992L106.176 110.016C106.738 109.25 106.953 108.404 106.821 107.481C106.716 106.56 106.324 105.681 105.642 104.843C104.746 103.742 103.678 103.141 102.437 103.042C101.211 102.93 100.009 103.354 98.8299 104.313C97.6352 105.285 96.9679 106.382 96.8279 107.604C96.7005 108.842 97.1038 110.035 98.0377 111.184C98.7697 112.083 99.5771 112.664 100.46 112.926C101.356 113.203 102.259 113.125 103.171 112.693L105.574 116.075ZM121.399 120.387C121.767 120.91 122.107 121.515 122.419 122.201L119.352 124.359C118.999 123.58 118.558 122.814 118.029 122.062C117.131 120.786 116.101 120.104 114.939 120.017C113.794 119.918 112.42 120.433 110.817 121.561L105.321 125.428L102.887 121.968L115.76 112.947L118.022 116.161L115.274 118.094C117.907 117.562 119.949 118.326 121.399 120.387ZM126.067 124.013L129.406 121.883L131.842 125.702L128.503 127.832L126.067 124.013ZM111.074 133.755L124.327 125.301L126.602 128.867L113.348 137.321L111.074 133.755ZM134.317 141.705C135.435 143.716 135.697 145.71 135.103 147.687C134.527 149.655 133.129 151.257 130.909 152.491C128.689 153.725 126.583 154.073 124.59 153.534C122.614 152.985 121.072 151.714 119.964 149.721C118.661 147.379 118.537 145.16 119.591 143.063L112.119 147.219L110.063 143.522L129.045 132.966L130.955 136.401L128.386 137.83C130.931 137.879 132.908 139.171 134.317 141.705ZM121.625 143.203C121.266 144.409 121.451 145.668 122.18 146.979C122.909 148.29 123.881 149.111 125.095 149.443C126.309 149.774 127.572 149.576 128.883 148.847C130.194 148.118 131.029 147.15 131.387 145.943C131.746 144.737 131.561 143.478 130.832 142.167C130.103 140.856 129.132 140.035 127.917 139.703C126.713 139.389 125.455 139.597 124.144 140.326C122.833 141.055 121.993 142.014 121.625 143.203ZM141.356 163.636L139.494 159.638L133.267 162.539C132.415 162.936 131.889 163.346 131.689 163.77C131.498 164.212 131.592 164.841 131.972 165.657C132.166 166.074 132.52 166.692 133.035 167.512L129.934 168.956C129.367 168.117 128.872 167.244 128.45 166.338C127.614 164.543 127.369 163.069 127.714 161.915C128.086 160.771 129.151 159.789 130.91 158.97L137.708 155.804L136.087 152.323L138.916 151.006L140.106 153.562C140.3 153.979 140.508 154.235 140.729 154.331C140.977 154.436 141.282 154.404 141.644 154.236L144.038 153.121L145.722 156.738L142.377 158.296L144.239 162.294L141.356 163.636Z" fill="white"/>
</svg>
