<svg width="17" height="17" viewBox="0 0 17 17" fill="none" xmlns="http://www.w3.org/2000/svg">
<g clip-path="url(#clip0_0_843)">
<path d="M15.9144 0.959425L4.32764 10.6154M7.05736 13.3573L9.70207 15.9923C9.86449 16.1587 10.0676 16.2799 10.2912 16.3438C10.5148 16.4077 10.7512 16.4121 10.9771 16.3566C11.2041 16.3036 11.4137 16.1931 11.5857 16.0357C11.7577 15.8784 11.8864 15.6794 11.9594 15.458L16.3017 2.44085C16.3932 2.19692 16.4126 1.93181 16.3576 1.67717C16.3025 1.42252 16.1753 1.18909 15.9913 1.00474C15.8072 0.820386 15.5739 0.692901 15.3193 0.637497C15.0648 0.582094 14.7996 0.601112 14.5556 0.692282L1.53843 5.03578C1.30939 5.11397 1.10536 5.25186 0.947404 5.43522C0.789445 5.61858 0.683277 5.84077 0.639856 6.07885C0.595242 6.29559 0.605174 6.52002 0.668759 6.73197C0.732344 6.94392 0.84759 7.13675 1.00414 7.29314L4.32764 10.6166L4.21836 14.8254L7.05736 13.3573Z" stroke="#D0FF71" stroke-width="1.21429" stroke-linecap="round" stroke-linejoin="round"/>
</g>
<defs>
<clipPath id="clip0_0_843">
<rect width="17" height="17" fill="white"/>
</clipPath>
</defs>
</svg>
