<svg width="102" height="87" viewBox="0 0 102 87" fill="none" xmlns="http://www.w3.org/2000/svg">
<path d="M73.1421 25.1392C73.572 22.9266 75.1115 20.7869 77.7606 18.7201C80.4097 16.6532 82.8596 15.6803 85.1103 15.8015C87.3734 15.9384 89.3845 17.1343 91.1438 19.3892L98.8945 29.3233L95.3939 32.0545L87.8831 22.4278C85.6194 19.5265 82.9896 19.2445 79.9936 21.582C76.9976 23.9195 76.6314 26.539 78.8951 29.4404L86.4059 39.067L82.9053 41.7982L75.1546 31.8641C73.3953 29.6092 72.7245 27.3676 73.1421 25.1392ZM65.8898 28.1092L77.0337 45.9085L73.2704 48.2646L62.1265 30.4653L65.8898 28.1092ZM62.571 55.3198L59.21 57.1143L55.3092 32.2284L58.6701 30.4339L62.571 55.3198ZM29.8498 47.3899C30.8859 45.3881 32.966 43.769 36.0902 42.5326C39.2144 41.2961 41.8392 41.0532 43.9646 41.8037C46.0973 42.5729 47.6899 44.2871 48.7423 46.9464L53.3791 58.6622L49.2506 60.2961L44.7574 48.9429C43.4032 45.5212 40.9594 44.5095 37.426 45.9079C33.8927 47.3062 32.8031 49.7163 34.1574 53.1381L38.6506 64.4913L34.5222 66.1252L29.8854 54.4093C28.8329 51.75 28.8211 49.4102 29.8498 47.3899ZM3.46119 52.3733L8.48131 51.18L15.9988 57.3795L19.9225 48.4603L24.7383 47.3156L19.0721 59.6709L28.9819 67.892L23.9326 69.0923L17.2697 63.2446L13.8632 71.4858L9.0474 72.6306L14.145 60.9963L3.46119 52.3733Z" fill="white"/>
</svg>
