<svg width="134" height="120" viewBox="0 0 134 120" fill="none" xmlns="http://www.w3.org/2000/svg">
<path d="M32.4425 96.0071C32.9396 93.7819 33.896 92.0693 35.3118 90.8691C36.708 89.6645 38.5089 89.3086 40.7145 89.8013C42.9006 90.2897 44.3442 91.35 45.0452 92.9821C45.7506 94.5947 45.8482 96.5428 45.338 98.8265L43.8467 105.502L51.459 107.203L50.4909 111.536L29.9962 106.957L32.4425 96.0071ZM41.9314 98.5266C42.1931 97.3555 42.1421 96.3911 41.7785 95.6336C41.4193 94.8566 40.7419 94.3569 39.7465 94.1345C38.7315 93.9078 37.9059 94.0717 37.2697 94.6263C36.6183 95.1571 36.1617 96.008 35.9001 97.1791L34.5069 103.415L40.5382 104.763L41.9314 98.5266ZM45.1336 72.599L46.684 68.3107L60.4947 79.8755C62.1187 81.207 63.0925 82.4842 63.416 83.7071C63.7651 84.9179 63.5928 86.4826 62.8992 88.401C62.6272 89.1533 62.3175 89.8921 61.9703 90.6172L58.8951 89.5054C59.2032 88.8299 59.4728 88.1724 59.704 87.5329C60.044 86.5925 60.1485 85.8327 60.0176 85.2537C59.9055 84.6815 59.4746 84.0791 58.7251 83.4466L58.1115 82.9377L57.3567 85.0254L40.2884 86L41.8491 81.6835L56.6143 81.3436L45.1336 72.599ZM55.9911 55.9894L54.0802 59.9638L60.2717 62.9407C61.1189 63.348 61.7697 63.4945 62.2241 63.3801C62.6872 63.2477 63.1138 62.776 63.5038 61.9649C63.7031 61.5503 63.9567 60.8844 64.2645 59.9672L67.3468 61.4492C67.0577 62.4197 66.6964 63.3557 66.2631 64.2569C65.4051 66.0413 64.4207 67.1658 63.3097 67.6303C62.1893 68.068 60.755 67.8666 59.0066 67.026L52.2473 63.7761L50.5833 67.2368L47.7714 65.8849L48.9934 63.3434C49.1927 62.9288 49.2593 62.6057 49.1931 62.3742C49.1175 62.1159 48.8995 61.9002 48.539 61.7268L46.1597 60.5829L47.8887 56.9869L51.2143 58.5859L53.1252 54.6114L55.9911 55.9894ZM60.4927 41.5861C61.5723 39.8316 62.8805 38.7932 64.4174 38.4708C65.9373 38.1379 67.6255 38.5426 69.4822 39.6851L77.5051 44.6216L75.2884 48.2243L68.3642 43.9637C67.1037 43.1881 66.0063 42.8534 65.0721 42.9596C64.1209 43.0553 63.3046 43.6568 62.6234 44.764C61.8583 46.0074 61.6579 47.2109 62.0222 48.3744C62.3799 49.5103 63.2231 50.4871 64.5518 51.3046L70.965 55.2507L68.7482 58.8533L49.943 47.2823L52.1597 43.6797L59.8249 48.3961C58.7923 46.2579 59.0149 43.9878 60.4927 41.5861ZM79.2602 39.1562C77.083 39.5399 74.9951 38.9319 72.9964 37.3322C70.9978 35.7326 69.9472 33.8286 69.8446 31.6202C69.742 29.4119 70.5718 27.2069 72.3339 25.0053C74.0961 22.8036 76.0595 21.5188 78.2241 21.1507C80.4013 20.767 82.4892 21.375 84.4879 22.9747C86.4865 24.5743 87.5371 26.4783 87.6397 28.6867C87.7548 30.8794 86.9312 33.0765 85.1691 35.2782C83.407 37.4798 81.4373 38.7725 79.2602 39.1562ZM73.6773 30.7684C73.8332 32.0459 74.481 33.1409 75.6209 34.0532C76.7608 34.9655 77.971 35.3578 79.2517 35.23C80.5323 35.1022 81.6538 34.4372 82.6161 33.2349C83.5784 32.0325 83.9816 30.7926 83.8258 29.5151C83.6699 28.2375 83.022 27.1426 81.8821 26.2303C80.7423 25.318 79.532 24.9257 78.2514 25.0535C76.9707 25.1813 75.8492 25.8463 74.8869 27.0486C73.9246 28.2509 73.5214 29.4909 73.6773 30.7684ZM89.001 6.84776C90.4791 5.41287 91.9954 4.73523 93.55 4.81484C95.1051 4.86618 96.6418 5.67393 98.1603 7.2381L104.722 13.997L101.687 16.9434L96.0238 11.1101C94.9929 10.0482 94.0117 9.45374 93.0801 9.32679C92.1345 9.18548 91.1954 9.56758 90.2626 10.4731C89.2151 11.4901 88.7247 12.6072 88.7915 13.8246C88.8587 15.0136 89.4357 16.1678 90.5223 17.2871L95.7673 22.69L92.7323 25.6364L81.7825 14.3571L84.6023 11.6197L86.7755 13.8583C86.0636 11.3161 86.8054 8.9792 89.001 6.84776Z" fill="white"/>
</svg>
