<svg width="38" height="38" viewBox="0 0 38 38" fill="none" xmlns="http://www.w3.org/2000/svg">
<g clip-path="url(#clip0_107_237)">
<path d="M19 0.768066C8.95401 0.768066 0.7677 8.95438 0.7677 19.0004C0.7677 29.0464 8.95401 37.2327 19 37.2327C29.046 37.2327 37.2323 29.0464 37.2323 19.0004C37.2323 8.95438 29.046 0.768066 19 0.768066ZM2.60916 19.0004C2.60916 16.6302 3.11967 14.3694 4.03129 12.3274L11.853 33.7503C6.38326 31.0884 2.60916 25.4911 2.60916 19.0004ZM19 35.3913C17.3956 35.3913 15.8458 35.1542 14.369 34.7167L19.2917 20.4225L24.3239 34.2244C24.3603 34.2973 24.3968 34.3885 24.4333 34.4432C22.7376 35.0631 20.9144 35.3913 19 35.3913ZM21.2608 11.3063C22.2454 11.2517 23.1388 11.1423 23.1388 11.1423C24.0139 11.0329 23.9228 9.73837 23.0294 9.79307C23.0294 9.79307 20.3674 9.99362 18.6536 9.99362C17.0492 9.99362 14.3325 9.79307 14.3325 9.79307C13.4574 9.7566 13.348 11.1058 14.2414 11.1605C14.2414 11.1605 15.0801 11.2699 15.9552 11.3246L18.5078 18.3258L14.916 29.0829L8.95401 11.3063C9.93856 11.2699 10.8319 11.1605 10.8319 11.1605C11.7071 11.0511 11.6159 9.7566 10.7225 9.8113C10.7225 9.8113 8.06063 10.0119 6.34679 10.0119C6.03684 10.0119 5.6722 10.0119 5.28932 9.99362C8.24295 5.54494 13.2751 2.60953 19 2.60953C23.2664 2.60953 27.1499 4.23221 30.067 6.91236C29.9941 6.91236 29.9212 6.89413 29.8483 6.89413C28.2438 6.89413 27.0952 8.29802 27.0952 9.8113C27.0952 11.1605 27.8792 12.3091 28.6996 13.6583C29.3195 14.7523 30.0488 16.1561 30.0488 18.1799C30.0488 19.5838 29.5018 21.2065 28.809 23.4855L27.1681 28.9552L21.2608 11.3063ZM33.3853 11.1423C35.4323 14.8904 35.9355 19.2894 34.7879 23.4029C33.6404 27.5165 30.9326 31.0197 27.241 33.1669L32.2549 18.6904C33.1848 16.3567 33.4947 14.4788 33.4947 12.8196C33.4947 12.218 33.4583 11.6528 33.3853 11.1423Z" fill="white"/>
</g>
<defs>
<clipPath id="clip0_107_237">
<rect width="38" height="38" fill="white"/>
</clipPath>
</defs>
</svg>
