<svg width="72" height="72" viewBox="0 0 72 72" fill="none" xmlns="http://www.w3.org/2000/svg">
<path d="M35.663 71.3179C55.3592 71.3179 71.326 55.3529 71.326 35.659C71.326 15.9651 55.3592 0 35.663 0C15.9669 0 0 15.9651 0 35.659C0 55.3529 15.9669 71.3179 35.663 71.3179Z" fill="#9B82F6"/>
<path d="M45.7969 25.5C45.7969 24.7838 45.2163 24.2032 44.5001 24.2032L32.8284 24.2032C32.1122 24.2032 31.5316 24.7838 31.5316 25.5C31.5316 26.2162 32.1122 26.7969 32.8284 26.7969L43.2032 26.7969L43.2032 37.1716C43.2032 37.8879 43.7838 38.4685 44.5001 38.4685C45.2163 38.4685 45.7969 37.8879 45.7969 37.1716L45.7969 25.5ZM26.0001 44L26.9171 44.917L45.4171 26.417L44.5001 25.5L43.583 24.583L25.0831 43.083L26.0001 44Z" fill="white"/>
</svg>
