<svg width="39" height="39" viewBox="0 0 39 39" fill="none" xmlns="http://www.w3.org/2000/svg">
<g clip-path="url(#clip0_357_229)">
<path fill-rule="evenodd" clip-rule="evenodd" d="M20.1207 14.9451C20.6566 15.3351 21.2807 15.5862 21.9374 15.676C22.594 15.7658 23.2626 15.6915 23.8835 15.4596C24.5044 15.2278 25.0581 14.8458 25.4952 14.3476C25.9324 13.8495 26.2392 13.2508 26.3884 12.6051C27.1417 13.4723 28.177 14.0457 29.3118 14.2241C30.4466 14.4025 31.608 14.1744 32.591 13.5801C32.1224 15.3003 32.1789 17.1215 32.7535 18.8093C32.7731 18.933 32.8393 19.0445 32.9385 19.121C33.0377 19.1975 33.1624 19.2331 33.287 19.2207C33.4116 19.2082 33.5268 19.1486 33.6089 19.054C33.6909 18.9594 33.7337 18.837 33.7285 18.7118C34.2389 16.687 34.2944 14.5743 33.891 12.5254C35.6931 10.3642 34.8172 7.55619 33.891 5.10406C33.2576 3.30354 32.0544 1.75863 30.4639 0.70356C29.0517 -0.40144 9.92387 -0.01144 6.058 0.55731C5.98153 0.561984 5.90687 0.582508 5.83877 0.617579C5.77066 0.652651 5.71059 0.701502 5.66237 0.761032C5.61415 0.820561 5.57884 0.889467 5.55868 0.963374C5.53852 1.03728 5.53395 1.11457 5.54526 1.19034C5.55657 1.26611 5.58351 1.3387 5.62437 1.40349C5.66524 1.46829 5.71913 1.52388 5.78263 1.56674C5.84613 1.6096 5.91784 1.63878 5.99322 1.65243C6.0686 1.66609 6.146 1.66392 6.2205 1.64606C7.2605 1.51606 8.80262 1.41856 10.556 1.36981C9.81993 3.35113 9.34469 5.41977 9.14225 7.52369C7.35224 7.98643 5.49639 8.1403 3.65462 7.97868C3.2185 7.98705 2.78376 8.03053 2.35462 8.10868C2.98984 6.0873 3.78873 4.12104 4.74337 2.22943C4.76089 2.11467 4.73823 1.99737 4.67922 1.89738C4.62021 1.7974 4.52848 1.72087 4.41954 1.68073C4.3106 1.6406 4.19114 1.63932 4.08137 1.67712C3.97159 1.71492 3.87825 1.78948 3.81712 1.88818C3.17813 2.95353 2.63435 4.07316 2.19212 5.23406C-2.14175 14.2788 5.76712 16.7309 8.98137 12.3792C10.0051 14.0042 10.4601 15.1401 12.5044 15.4147C13.8131 15.5645 15.1322 15.2417 16.224 14.5047C16.9628 14.0363 17.5714 13.389 17.9936 12.6229C18.4838 13.5722 19.218 14.3737 20.1207 14.9451ZM29.5717 1.95319C30.8676 2.82886 31.8381 4.10783 32.3326 5.59156C33.1402 7.17756 33.3239 9.00731 32.8526 10.7233C32.6281 11.1297 32.3165 11.4815 31.94 11.7534C31.5636 12.0252 31.1318 12.2105 30.6754 12.2959C30.2189 12.3813 29.7493 12.3648 29.3 12.2474C28.8508 12.13 28.4331 11.9148 28.0767 11.6171C26.1934 9.37456 26.4534 9.39081 26.5346 8.88706C27.6071 8.88706 28.6959 8.75706 29.783 8.74081C29.8555 8.74081 29.9274 8.72652 29.9944 8.69875C30.0615 8.67099 30.1224 8.63029 30.1737 8.57899C30.225 8.52768 30.2657 8.46677 30.2934 8.39974C30.3212 8.33271 30.3355 8.26087 30.3355 8.18831C30.3355 8.11575 30.3212 8.04391 30.2934 7.97688C30.2657 7.90985 30.225 7.84894 30.1737 7.79763C30.1224 7.74633 30.0615 7.70563 29.9944 7.67787C29.9274 7.6501 29.8555 7.63581 29.783 7.63581L26.5346 7.53831C26.4119 5.53421 26.0797 3.54846 25.5434 1.61356C26.8596 1.61356 27.9484 1.77606 28.7934 1.87356C29.1167 1.92231 29.4905 2.14981 29.5717 2.03606V1.95319ZM24.3425 1.61193C24.3089 3.63308 24.4393 5.65363 24.7325 7.65369L18.8386 7.49119C19.0011 5.46969 19.0011 3.43844 18.8386 1.41856C20.8032 1.40231 22.7191 1.46568 24.3425 1.61193ZM11.7585 1.33731H17.7011C17.3111 3.31331 17.0999 5.31856 17.0674 7.33031C15.0592 7.07234 13.0301 7.01789 11.011 7.16781C11.3522 5.81906 11.7585 1.33731 11.7585 1.33731ZM7.82762 11.5358C7.42476 12.1986 6.80718 12.7035 6.07757 12.9666C5.34796 13.2297 4.55026 13.2352 3.81712 12.9821C2.19212 12.3646 1.98087 10.8533 2.19212 9.18118C2.67962 9.13243 3.16712 9.13243 3.65462 9.18118C5.45524 9.48692 7.29451 9.48692 9.09512 9.18118C9.06262 10.0912 8.28262 10.7558 7.82762 11.5358ZM15.2327 12.9837C13.9815 13.8612 11.9844 14.0887 11.206 12.8049C10.6231 11.5882 10.4138 10.2259 10.6047 8.89031C12.8048 8.78731 15.0096 8.86339 17.1974 9.11781C17.1695 9.86605 16.9794 10.5993 16.6402 11.2668C16.301 11.9343 15.8207 12.5201 15.2327 12.9837ZM18.5949 9.15031C20.7057 9.15031 22.3129 9.15031 25.09 8.97156C25.3825 10.3203 24.4887 13.5183 22.9937 13.7458C22.3227 13.7561 21.6623 13.5773 21.0882 13.2299C20.514 12.8824 20.0492 12.3804 19.747 11.7812C19.262 10.9747 18.8747 10.1133 18.5932 9.21531L18.5949 9.15031ZM38.0802 28.9899C37.9594 28.7598 37.7768 28.5679 37.5528 28.4359C37.3289 28.3038 37.0726 28.2368 36.8127 28.2424C36.374 24.7844 35.984 21.9277 32.8185 22.4786C32.8185 20.9527 31.811 20.7577 30.3014 20.6927C25.5759 20.6927 24.4887 20.7739 23.6762 22.1552C22.7742 22.074 21.8748 22.3367 21.1582 22.8905C20.4417 23.4444 19.9608 24.2486 19.812 25.1419C19.5492 26.2034 19.4668 27.3015 19.5682 28.3903C19.4303 28.4208 19.3093 28.503 19.2301 28.62C19.1509 28.737 19.1195 28.8799 19.1424 29.0193C19.1653 29.1587 19.2407 29.284 19.3532 29.3695C19.4656 29.455 19.6065 29.4942 19.747 29.4791H22.8979C22.9791 30.0949 23.1091 30.9724 23.2229 32.1408C22.029 32.1148 20.8379 32.1581 19.6495 32.2708C19.4372 31.4735 19.1717 30.694 18.8532 29.9324C18.7654 29.8702 18.6603 29.8367 18.5526 29.8367C18.4449 29.8367 18.3399 29.8702 18.252 29.9324C17.8457 30.2087 17.9757 30.1599 19.6657 36.4276C19.747 37.1231 19.9842 37.7893 20.3645 38.3776C21.0957 39.1397 23.1091 38.9301 23.9525 38.9463C26.7323 39.0481 29.5089 39.0048 32.2822 38.8163C33.2735 38.7351 35.6281 39.2697 36.2781 37.9713C37.0305 36.1659 37.5765 34.2809 37.9015 32.3521C38.0477 31.3933 38.6815 30.1421 38.0802 28.9899ZM25.285 22.1064C27.2252 22.3578 29.1736 22.4878 31.1301 22.4964C31.1007 22.8509 31.0519 23.2035 30.9839 23.5527C30.9839 23.5527 25.2037 23.7152 24.8787 23.5527C24.5537 23.3902 24.5375 23.4064 24.5212 23.2602C24.5067 23.0112 24.5733 22.7641 24.711 22.5561C24.8487 22.3481 25.0501 22.1903 25.285 22.1064ZM20.6082 28.2782C20.8466 27.4906 21.1337 26.7214 21.4695 25.9707C22.3616 23.6989 21.8741 24.1214 23.335 23.3902C23.3493 23.6934 23.4482 23.9865 23.6205 24.2364C23.7928 24.4862 24.0317 24.6829 24.31 24.8039C25.1761 25.1289 26.0975 25.2833 27.0221 25.2589C30.2689 25.4864 32.4285 26.0536 32.721 23.6339C32.9019 23.6448 33.0807 23.6719 33.2572 23.7152C33.3872 23.7152 34.4435 23.6177 35.5469 27.9857C30.5664 27.7509 25.5757 27.8486 20.6082 28.2782ZM29.4417 29.3669C29.2955 30.2856 29.2197 31.2108 29.2142 32.1424C27.2642 31.9962 26.7767 32.1424 25.0737 32.0612L24.7812 31.0537C23.985 29.2678 24.0825 29.5766 24.05 29.4303C26.2437 29.3491 27.4755 29.3166 29.4417 29.3653M36.0506 31.8808C35.7581 32.9696 35.5794 34.0908 35.3031 35.1292C34.5231 38.0834 35.3031 36.6079 32.0547 36.9151C28.4667 37.2563 24.8625 37.4026 21.2566 37.3538L19.9404 33.2946C21.1082 33.3401 22.2674 33.4646 23.4179 33.6683C23.6605 34.6758 24.0012 35.6497 24.44 36.5901C25.3825 37.4513 25.3012 33.9917 25.285 33.8617C26.5991 33.9364 27.9142 33.9364 29.2305 33.8617C29.328 34.7554 29.3605 36.6729 30.2217 36.3967C31.0814 36.1204 30.6605 35.9742 30.9026 33.8454C32.0326 33.9235 33.1678 33.8192 34.2647 33.5367C34.4059 33.529 34.5387 33.4676 34.6359 33.3649C34.7331 33.2623 34.7873 33.1263 34.7873 32.985C34.7873 32.8437 34.7331 32.7077 34.6359 32.6051C34.5387 32.5024 34.4059 32.441 34.2647 32.4333C33.1875 32.6342 32.0796 32.601 31.0164 32.3358C31.0164 31.4096 30.9026 32.1083 30.7889 29.4124C32.7075 29.5208 34.613 29.7374 36.5056 30.0624C36.4005 30.6799 36.2489 31.2866 36.0506 31.8824M9.29012 25.8569C10.3789 25.8569 10.2489 23.0311 9.38762 23.0311C7.90887 23.0473 8.46137 25.8569 9.29012 25.8569ZM13.2031 19.8981C13.3656 20.2556 13.7069 23.6811 13.9344 26.1332C14.1619 28.5853 15.0377 28.2766 15.2977 26.1332C15.2977 24.6544 15.4115 23.0636 15.4115 22.9823C15.4708 21.5872 15.2441 20.1948 14.7452 18.8906C14.5844 18.6265 14.3377 18.4257 14.0465 18.3218C11.6365 18.0636 9.20966 17.9984 6.78925 18.1268C6.36675 18.2406 6.07425 18.7118 6.52925 19.1018C6.65925 19.2156 12.6669 19.9306 13.2031 19.8981ZM5.52175 26.1332C6.04175 27.3519 6.59425 27.2869 7.14675 26.1332C7.14675 25.3857 7.14675 24.6869 7.24425 24.5082V22.8848C6.773 19.6381 6.9355 19.9143 6.56175 19.7356C6.49261 19.7076 6.41799 19.6959 6.34362 19.7013C6.26925 19.7067 6.19712 19.7291 6.13277 19.7668C6.06841 19.8045 6.01356 19.8564 5.97243 19.9186C5.93129 19.9808 5.90497 20.0516 5.8955 20.1256C5.60558 21.7328 5.45875 23.3625 5.45675 24.9957C5.39175 25.2394 5.45675 25.6782 5.52175 26.1332Z" fill="#101700"/>
<path fill-rule="evenodd" clip-rule="evenodd" d="M15.834 28.6975C14.8265 28.6975 5.05045 28.1612 3.29708 27.9987C2.99965 27.9746 2.70076 27.9746 2.40333 27.9987C2.11083 15.8697 2.06208 26.1332 2.02958 13.8239C2.0224 13.6997 1.96799 13.5829 1.87751 13.4975C1.78703 13.4121 1.66731 13.3645 1.54289 13.3645C1.41847 13.3645 1.29875 13.4121 1.20827 13.4975C1.11779 13.5829 1.06338 13.6997 1.0562 13.8239C0.643145 18.6409 0.55628 23.4804 0.796202 28.3091C0.893702 29.1379 1.1537 29.5929 1.94995 29.7229C6.5731 30.0004 11.2079 30.0275 15.834 29.8041C15.9805 29.8041 16.121 29.7459 16.2246 29.6423C16.3282 29.5387 16.3865 29.3981 16.3865 29.2516C16.3865 29.1051 16.3282 28.9646 16.2246 28.8609C16.121 28.7573 15.9805 28.6975 15.834 28.6975Z" fill="#101700"/>
</g>
<defs>
<clipPath id="clip0_357_229">
<rect width="39" height="39" fill="white"/>
</clipPath>
</defs>
</svg>
