<svg width="136" height="136" viewBox="0 0 136 136" fill="none" xmlns="http://www.w3.org/2000/svg">
<path d="M54.8194 130.373C43.5695 127.994 33.1726 122.617 24.7301 114.81C16.2875 107.004 10.1138 97.0588 6.86293 86.0293C3.61205 74.9998 3.40509 63.2964 6.26398 52.1588C9.12287 41.0213 14.9411 30.8645 23.1024 22.7643C31.2636 14.6642 41.4639 8.92249 52.6226 6.14742C63.7814 3.37235 75.4829 3.6673 86.4876 7.00102C97.4924 10.3347 107.39 16.5831 115.133 25.0841C122.876 33.585 128.175 44.0221 130.469 55.2895M28.4694 117.906L34.1361 89.2895H40.2561C41.5485 89.294 42.8245 88.9996 43.9844 88.4295C45.1443 87.8594 46.1568 87.0289 46.9427 86.0029C47.7523 85.0005 48.313 83.8207 48.5789 82.56C48.8448 81.2992 48.8085 79.9935 48.4727 78.7495L44.2227 61.7495C43.7774 59.9066 42.7246 58.2671 41.2341 57.0953C39.7436 55.9234 37.9021 55.2874 36.0061 55.2895H5.80273M119.136 29.7895H96.0161C94.1201 29.7874 92.2785 30.4234 90.788 31.5953C89.2975 32.7671 88.2448 34.4066 87.7994 36.2495L86.2127 42.4829M89.0801 93.4432C89.0801 95.6975 89.9756 97.8595 91.5696 99.4536C93.1637 101.048 95.3257 101.943 97.5801 101.943C99.8344 101.943 101.996 101.048 103.59 99.4536C105.185 97.8595 106.08 95.6975 106.08 93.4432C106.08 91.1889 105.185 89.0268 103.59 87.4328C101.996 85.8387 99.8344 84.9432 97.5801 84.9432C95.3257 84.9432 93.1637 85.8387 91.5696 87.4328C89.9756 89.0268 89.0801 91.1889 89.0801 93.4432ZM104.777 60.5765L107.497 68.7932C107.918 70.1494 108.833 71.2981 110.061 72.0117C111.289 72.7253 112.74 72.9519 114.127 72.6465L122.457 70.7199C124.041 70.3557 125.701 70.5097 127.191 71.1591C128.681 71.8085 129.924 72.9191 130.736 74.3274C131.548 75.7358 131.886 77.3675 131.702 78.9827C131.517 80.5979 130.819 82.1111 129.71 83.2999L124.043 89.5899C123.072 90.6377 122.532 92.0141 122.532 93.4432C122.532 94.8723 123.072 96.2487 124.043 97.2965L129.71 103.587C130.819 104.775 131.517 106.289 131.702 107.904C131.886 109.519 131.548 111.151 130.736 112.559C129.924 113.967 128.681 115.078 127.191 115.727C125.701 116.377 124.041 116.531 122.457 116.167L114.127 114.24C112.74 113.935 111.289 114.161 110.061 114.875C108.833 115.588 107.918 116.737 107.497 118.093L104.947 126.31C104.503 127.876 103.56 129.255 102.261 130.237C100.962 131.219 99.3783 131.751 97.7501 131.751C96.1218 131.751 94.538 131.219 93.2391 130.237C91.9403 129.255 90.9973 127.876 90.5534 126.31L88.0034 118.093C87.5822 116.737 86.667 115.588 85.4392 114.875C84.2114 114.161 82.7603 113.935 81.3734 114.24L73.0434 116.167C71.459 116.531 69.7996 116.377 68.3093 115.727C66.8189 115.078 65.5764 113.967 64.7644 112.559C63.9523 111.151 63.6137 109.519 63.7984 107.904C63.983 106.289 64.6811 104.775 65.7901 103.587L71.4567 97.2965C72.4285 96.2487 72.9685 94.8723 72.9685 93.4432C72.9685 92.0141 72.4285 90.6377 71.4567 89.5899L65.7901 83.2999C64.6811 82.1111 63.983 80.5979 63.7984 78.9827C63.6137 77.3675 63.9523 75.7358 64.7644 74.3274C65.5764 72.9191 66.8189 71.8085 68.3093 71.1591C69.7996 70.5097 71.459 70.3557 73.0434 70.7199L81.3734 72.6465C82.7603 72.9519 84.2114 72.7253 85.4392 72.0117C86.667 71.2981 87.5822 70.1494 88.0034 68.7932L90.4967 60.5765C90.9719 59.0547 91.921 57.7245 93.2054 56.78C94.4898 55.8355 96.0424 55.3261 97.6367 55.3261C99.231 55.3261 100.784 55.8355 102.068 56.78C103.352 57.7245 104.302 59.0547 104.777 60.5765Z" stroke="white" stroke-width="5" stroke-linecap="round" stroke-linejoin="round"/>
</svg>
