<svg width="184" height="40" viewBox="0 0 184 40" fill="none" xmlns="http://www.w3.org/2000/svg">
  <g fill="#0A1F44">
    <path d="M0.448 27.032c1.728 1.036 4.08 1.738 6.6 1.738 3.784 0 5.952-1.638 5.952-4.038 0-2.03-1.442-3.24-5.08-4.12-4.424-1.052-6.968-2.64-6.968-5.702 0-3.202 3.03-5.552 7.612-5.552 3.01 0 5.2.584 6.688 1.308l-1.316 2.976c-1.004-.528-2.96-1.236-5.456-1.236-3.844 0-5.28 1.788-5.28 3.276 0 2.076 1.936 2.94 5.296 3.748 4.492 1.1 6.744 2.684 6.744 5.78 0 3.168-2.712 5.916-8.08 5.916-2.956 0-5.98-.728-7.656-1.712l1.544-3.332z" />
    <path d="M27.256 13.662c5.1 0 8.312 3.632 8.312 8.58 0 .58-.064 1.124-.128 1.472H22.064c.352 3.332 2.8 5.264 5.764 5.264 1.648 0 3.04-.404 4.352-1.156l1.152 2.38c-1.572.968-3.552 1.576-5.776 1.576-4.948 0-8.432-3.48-8.432-8.532 0-5.052 3.328-9.584 8.132-9.584zm4.664 7.768c-.072-2.6-1.624-4.916-4.552-4.916-2.696 0-4.78 2.116-5.096 4.916h9.648z" />
    <path d="M47.976 13.662c5.1 0 8.312 3.632 8.312 8.58 0 .58-.064 1.124-.128 1.472H42.784c.352 3.332 2.8 5.264 5.764 5.264 1.648 0 3.04-.404 4.352-1.156l1.152 2.38c-1.572.968-3.552 1.576-5.776 1.576-4.948 0-8.432-3.48-8.432-8.532 0-5.052 3.328-9.584 8.132-9.584zm4.664 7.768c-.072-2.6-1.624-4.916-4.552-4.916-2.696 0-4.78 2.116-5.096 4.916h9.648z" />
    <path d="M75.256 13.662c3.512 0 5.984 1.876 5.984 5.764v9.996h-3.288l-.336-2.104h-.104c-1.32 1.476-3.2 2.48-5.168 2.48-2.968 0-4.96-1.54-4.96-4.108 0-3.4 3.04-5.272 9.984-5.224v-.296c0-2.012-1.272-3.204-3.504-3.204-1.62 0-3.168.532-4.32 1.284l-1.028-2.364c1.404-.884 3.416-1.704 6.72-1.704zm-.688 7.9c-4.352-.052-6.568 1.056-6.568 3.056 0 1.612 1.176 2.332 2.64 2.332 1.928 0 3.552-1.212 4-2.54l-.072-2.848z" />
    <path d="M92.664 16.318h-4.408v7.9c0 2.084.84 3.036 2.424 3.036.7 0 1.192-.08 1.652-.224l.344 2.656c-.7.244-1.624.444-2.72.444-1.392 0-2.488-.38-3.192-1.08-.824-.824-1.176-2.14-1.176-3.992v-8.74h-3.048v-2.64h3.984V9.282l3.392-.812v5.208h4.408v2.64z" />
    <path d="M108.168 28.462h-3.376l-.272-2.156h-.108c-1.264 1.48-3.048 2.532-5.128 2.532-3.288 0-5.156-2.152-5.156-5.544v-9.72h3.392v9.1c0 2.236.992 3.516 3.04 3.516 1.644 0 3.04-1.044 3.428-2.404.108-.356.164-.796.164-1.236v-8.976h3.356v10.888c0 .916.04 1.86.156 2.968z" />
  </g>
  <g>
    <path
      d="M122.094 12.2819c1.424-1.7701 3.68-2.902 6.248-2.902 4.364 0 7.486 3.0428 7.486 7.2263 0 0-.0218 2.5956-1.536 4.5956-1.5142 2-4.33 3.1782-7.548 2.2088-.776-.229-1.6.134-1.964.8452-.158.3048-.2.6504-.122.978.232.9747.664 1.9213 1.262 2.7641 1.132 1.6127 2.756 2.679 4.868 3.1988.668.163 1.004.896.69 1.5064-.162.3187-.472.528-.832.552-3.062.104-5.652-.94-7.652-3.148-1.708-1.8446-2.684-4.3262-2.684-6.8786 0-1.3658.238-2.6147.662-3.6087.122-.2884.174-.6084.128-.9204-.122-.8564-.846-1.52-1.76-1.52-.558 0-1.06.26-1.38.7-.636 0-1.148-.504-1.148-1.128 0-.25.086-.48.226-.664 1.014-1.324 2.352-2.334 3.836-2.906 1.32-.51 2.004-1.126 2.304-1.558z"
      fill="#4BBE7E"
    />
    <path
      d="M127.934 15.1295c-.868 0-1.572.6921-1.572 1.5465s.704 1.5464 1.572 1.5464 1.572-.692 1.572-1.5464-.704-1.5465-1.572-1.5465z"
      fill="#0A1F44"
    />
  </g>
</svg>
